<svg class="icon" style="width: 1.1220703125em; height: 1em;vertical-align: middle;fill: currentColor;overflow: hidden;" viewBox="0 0 1149 1024" version="1.1" xmlns="http://www.w3.org/2000/svg" p-id="6504"><path d="M898.612245 41.795918h-104.489796V20.897959H355.265306v20.897959h-104.489796L20.897959 522.44898v83.591836h1107.591837v-83.591836L898.612245 41.795918z" fill="#FFFFFF" p-id="6505"></path><path d="M41.795918 543.346939H0v-46.811429L237.818776 20.897959H292.571429v41.795919h-28.839184L41.795918 506.566531V543.346939zM1149.387755 543.346939h-41.795918v-36.780408L885.65551 62.693878H856.816327V20.897959h54.752653L1149.387755 496.53551V543.346939z" fill="currentColor" p-id="6506"></path><path d="M794.122449 543.346939l-62.693878 62.693877H417.959184l-62.693878-62.693877H20.897959v459.755102h1107.591837V543.346939z" fill="#A3D4FF" p-id="6507"></path><path d="M1149.387755 1024H0V522.44898h363.833469l62.693878 62.693877h296.333061l62.693878-62.693877H1149.387755zM41.795918 982.204082h1065.795919V564.244898H802.690612l-62.693877 62.693878H409.39102l-62.693877-62.693878H41.795918zM1003.102041 501.55102h-41.795919v-83.591836H188.081633v83.591836H146.285714v-125.387755h856.816327v125.387755zM940.408163 355.265306h-41.795918v-62.693877H250.77551v62.693877h-41.795918v-104.489796h731.428571v104.489796zM877.714286 229.877551h-41.795919V167.183673H313.469388v62.693878h-41.795919V125.387755h606.040817v104.489796zM815.020408 104.489796h-41.795918V41.795918H376.163265v62.693878h-41.795918V0h480.653061v104.489796z" fill="currentColor" p-id="6508"></path><path d="M647.836735 856.816327h-146.285715a41.795918 41.795918 0 0 1-41.795918-41.795919v-83.591837h229.877551v83.591837a41.795918 41.795918 0 0 1-41.795918 41.795919z" fill="#FFFFFF" p-id="6509"></path><path d="M647.836735 877.714286h-146.285715a62.693878 62.693878 0 0 1-62.693877-62.693878v-104.489796h271.673469v104.489796a62.693878 62.693878 0 0 1-62.693877 62.693878z m-167.183674-125.387755v62.693877a20.897959 20.897959 0 0 0 20.897959 20.897959h146.285715a20.897959 20.897959 0 0 0 20.897959-20.897959v-62.693877z" fill="currentColor" p-id="6510"></path></svg>
