<svg class="icon" style="width: 1em; height: 1em;vertical-align: middle;fill: currentColor;overflow: hidden;" viewBox="0 0 1024 1024" version="1.1" xmlns="http://www.w3.org/2000/svg" p-id="1224"><path d="M606.208 444.928c-2.56 10.24-5.12 19.456-7.68 28.16-2.56 7.168-5.632 14.336-9.728 21.504-4.096 7.168-8.192 12.8-12.288 16.896-5.632 4.608-9.728 9.216-12.288 14.336-2.048 5.12-4.096 10.24-5.632 15.872-1.536 5.632-3.584 11.264-5.12 16.896-2.048 5.632-5.12 11.776-9.728 17.408-14.848 19.456-25.6 37.888-33.28 55.808-7.168 17.92-12.288 35.328-15.36 52.224-3.072 16.896-3.584 33.28-2.56 49.664 1.536 16.384 4.096 32.256 7.68 47.616 2.56 11.776 6.656 23.552 11.776 36.352 5.12 12.288 12.8 25.6 22.528 38.4 9.728 13.312 22.528 26.112 37.888 38.4 15.36 12.288 34.816 24.576 57.856 36.352-15.36 3.072-33.28 6.144-53.76 8.704-17.408 2.048-38.912 3.584-64 5.12-25.6 1.536-54.272 2.56-87.04 2.56-16.896 0-36.352-0.512-58.368-2.048-22.016-1.536-45.056-3.072-68.608-4.608-23.552-2.048-46.592-4.096-69.12-6.656-23.04-2.56-43.52-5.12-62.464-8.192-18.944-3.072-34.816-6.144-48.128-9.216-13.312-3.072-21.504-6.144-24.576-8.704-5.632-5.12-10.24-19.456-13.312-43.008-3.072-23.552-2.048-54.272 3.072-92.16 3.072-20.992 11.776-37.376 25.6-48.64 13.824-11.264 30.208-19.968 48.64-26.624 18.432-6.656 37.888-12.288 58.368-17.92 20.48-5.632 37.888-12.8 53.248-22.528 12.288-7.68 21.504-14.848 28.16-21.504 6.656-6.656 10.752-13.824 13.312-20.48 2.56-7.168 4.096-14.336 4.096-22.016 0-7.68-0.512-15.872-1.024-25.088-1.536-13.312-6.144-24.064-13.824-31.744-8.192-7.68-16.384-15.36-25.6-23.04-5.12-4.096-9.728-9.728-13.312-17.408-4.096-7.68-7.168-14.848-9.728-22.016-3.072-8.192-5.632-17.408-7.68-28.16-4.608-1.536-8.704-3.072-12.288-5.632-3.072-2.56-6.656-6.656-10.752-11.776-4.096-5.12-7.168-12.8-10.752-23.04-3.072-9.728-4.096-18.432-3.584-27.136 1.024-8.192 2.56-15.36 5.12-20.992 2.56-7.168 6.144-13.312 10.752-18.432 0-22.016 1.536-43.52 4.096-65.536 2.56-18.432 6.656-38.4 12.288-59.904 5.632-20.992 14.336-39.936 26.624-56.832 11.776-15.872 24.064-29.184 36.864-39.424 13.312-10.24 26.624-18.432 40.96-24.064 14.336-5.632 28.16-9.728 42.496-12.288 14.336-2.048 27.648-3.584 40.448-3.584 16.896 0 32.768 2.048 48.128 5.632 15.36 4.096 29.696 9.216 43.008 15.36 13.312 6.656 25.088 13.824 35.328 21.504 10.24 8.192 18.432 16.384 25.088 24.576 14.848 18.432 25.6 38.912 32.256 61.44 6.656 22.528 11.776 43.52 14.848 63.488 3.072 23.04 4.608 46.08 4.096 69.12 4.096 3.072 7.168 7.168 9.728 11.776 2.56 4.096 4.608 9.216 5.632 15.36 1.536 6.656 1.536 14.336 0 24.064-1.536 12.288-4.096 22.016-7.68 28.672-4.096 7.168-8.192 12.288-12.288 16.384C617.472 439.808 611.84 443.392 606.208 444.928L606.208 444.928zM899 672.1l-6 0c-3-9.5-7-18.7-11.7-27.3l4.7-4.7c17-17 17-44.5 0-61.4l-1.3-1.3c-17-17-44.5-17-61.4 0l-5.3 5.3c-8.7-4.6-17.9-8.3-27.5-11.2l0-7.6c0-24-19.5-43.4-43.4-43.4l-1.8 0c-24 0-43.4 19.4-43.4 43.4l0 8.2c-9.2 2.8-18 6.5-26.3 11l-5.6-5.6c-16.9-17-44.5-17-61.4 0l-1.3 1.3c-16.9 17-16.9 44.5 0 61.4l5.4 5.4c-4.5 8.4-8.4 17.3-11.3 26.6l-7.9 0c-24 0-43.4 19.4-43.4 43.4l0 1.8c0 24 19.4 43.4 43.4 43.4l6.9 0c2.9 9.8 6.7 19.2 11.4 28.1l-5.3 5.3c-17 17-17 44.5 0 61.5l1.3 1.3c17 17 44.5 17 61.4 0l4.7-4.7c8.8 4.8 18.2 8.9 27.9 11.9l0 6.4c0 24 19.5 43.4 43.4 43.4l1.8 0c24 0 43.4-19.4 43.4-43.4l0-5.9c10.2-3 19.9-7.1 29.1-12.1l4.4 4.4c16.9 17 44.5 17 61.4 0l1.3-1.3c17-17 17-44.5 0-61.5l-4.5-4.5c4.8-9.1 8.8-18.7 11.8-28.8l5 0c24 0 43.4-19.5 43.4-43.4l0-1.8C942.5 691.5 923 672.1 899 672.1zM747.3 785.9c-37.6 0-68-30.4-68-68 0-37.6 30.4-68 68-68 37.5 0 68 30.4 68 68C815.3 755.5 784.9 785.9 747.3 785.9z" p-id="1225"></path></svg>
