<svg class="icon" style="width: 1em; height: 1em;vertical-align: middle;fill: currentColor;overflow: hidden;" viewBox="0 0 1024 1024" version="1.1" xmlns="http://www.w3.org/2000/svg" p-id="6541"><path d="M858.7 550.8L708.3 370c-5.4-6.8-7.7-15.4-5-24l63.4-226.1c5.9-21.3-15-39.9-35.3-31.7l-217.9 87c-8.2 3.2-17.7 2.3-24.5-2.7L293.3 42c-18.1-12.2-42.6 1.8-41.2 23.6l15.4 234.7c0.5 8.6-3.2 17.2-10 22.6L73.1 468.3c-17.2 13.6-11.3 40.8 10 46.2l227.5 58c8.6 2.3 15.4 8.6 18.6 16.8l81.1 220.2c7.7 20.8 35.8 23.6 47.6 5l111.9-177.2 203.4 352.1c9.1 15.9 29.9 21.7 46.2 12.2l0.9-0.5c16.3-9.5 21.8-30.4 12.7-46.7L629.5 602.5l209.8-8.1c21.7-1 33-26.8 19.4-43.6z m-283.6-42.1c-5.4 10.4-14 19-24.9 25.4-10.9 6.3-23.1 9.5-34.9 9.1-24 0-47.1-12.2-59.8-34.4l-8.1-14.5L567 425.4l8.2 14c13 22.1 12.1 48.4-0.1 69.3z" p-id="6542"></path></svg>
