<svg class="icon" style="width: 1em; height: 1em;vertical-align: middle;fill: currentColor;overflow: hidden;" viewBox="0 0 1024 1024" version="1.1" xmlns="http://www.w3.org/2000/svg" p-id="4762"><path d="M512 0C228.693333 0 0 228.693333 0 512s228.693333 512 512 512 512-228.693333 512-512S795.306667 0 512 0z m242.346667 588.8c0 20.48-17.066667 37.546667-37.546667 37.546667H522.24c-15.36 0-29.013333-11.946667-29.013333-29.013334v-10.24c0-15.36-13.653333-29.013333-29.013334-29.013333h-90.453333c-20.48 0-37.546667 17.066667-37.546667 37.546667v180.906666c0 15.36-11.946667 29.013333-29.013333 29.013334-15.36 0-29.013333-11.946667-29.013333-29.013334V293.546667c0-20.48 17.066667-37.546667 37.546666-37.546667h232.106667c15.36 0 29.013333 11.946667 29.013333 29.013333v10.24c0 15.36 11.946667 29.013333 29.013334 29.013334H716.8c20.48 0 37.546667 17.066667 37.546667 37.546666v226.986667z" fill="#01BBF2" p-id="4763"></path></svg>
