<svg class="icon" style="width: 1em; height: 1em;vertical-align: middle;fill: currentColor;overflow: hidden;" viewBox="0 0 1024 1024" version="1.1" xmlns="http://www.w3.org/2000/svg" p-id="2100"><path d="M338.364 259.935l601.451 0c46.428 0 84.001-37.637 84.001-84.033 0-46.395-37.573-84.014-84.001-84.014l-601.451 0c-46.406 0-84.024 37.619-84.024 84.014C254.339 222.298 291.957 259.935 338.364 259.935zM93.852 91.886l-9.633 0c-46.414 0-84.033 37.619-84.033 84.014 0 46.396 37.619 84.033 84.033 84.033l9.633 0c46.424 0 84.042-37.637 84.042-84.033C177.894 129.506 140.277 91.886 93.852 91.886zM939.814 427.98 338.364 427.98c-46.406 0-84.024 37.619-84.024 84.016 0 46.399 37.618 84.033 84.024 84.033l601.451 0c46.428 0 84.001-37.635 84.001-84.033C1023.815 465.601 986.241 427.98 939.814 427.98zM93.852 427.98l-9.633 0c-46.414 0-84.033 37.619-84.033 84.016 0 46.399 37.619 84.033 84.033 84.033l9.633 0c46.424 0 84.042-37.635 84.042-84.033C177.894 465.601 140.277 427.98 93.852 427.98zM939.814 764.059 338.364 764.059c-46.406 0-84.024 37.633-84.024 84.023 0 46.405 37.618 84.032 84.024 84.032l601.451 0c46.428 0 84.001-37.627 84.001-84.032C1023.815 801.692 986.241 764.059 939.814 764.059zM93.852 764.059l-9.633 0c-46.414 0-84.033 37.633-84.033 84.023 0 46.405 37.619 84.032 84.033 84.032l9.633 0c46.424 0 84.042-37.627 84.042-84.032C177.894 801.692 140.277 764.059 93.852 764.059z" p-id="2101"></path></svg>
