<svg class="icon" style="width: 1em; height: 1em;vertical-align: middle;fill: currentColor;overflow: hidden;" viewBox="0 0 1024 1024" version="1.1" xmlns="http://www.w3.org/2000/svg" p-id="5827"><path d="M253.88032 978.233344H771.42016c17.793024 0 32.479232-12.509184 32.479232-30.308352 0-17.793024-14.686208-30.304256-32.479232-30.304256H253.88032c-17.793024 0-32.352256 12.511232-32.352256 30.304256 0 17.79712 14.559232 30.308352 32.352256 30.308352z m292.937728-126.656512h408.242176a64.073728 64.073728 0 0 0 43.874304-16.502784 58.128384 58.128384 0 0 0 18.569216-41.537536V103.745536a56.307712 56.307712 0 0 0-19.08736-41.480192 61.351936 61.351936 0 0 0-41.805824-16.177152H70.885376a64.382976 64.382976 0 0 0-44.130304 16.177152 56.291328 56.291328 0 0 0-18.700288 41.607168v690.176a57.393152 57.393152 0 0 0 19.089408 41.28768 61.489152 61.489152 0 0 0 41.736192 16.24064h477.937664z m381.728768-58.605568H97.591296a25.9072 25.9072 0 0 1-18.251776-7.784448 25.892864 25.892864 0 0 1-7.3728-18.423808V132.325376c0-14.301184 11.646976-25.626624 25.622528-25.626624h830.95552c13.78304 0 24.911872 11.32544 24.911872 25.626624v634.435584c0.32768 14.104576-10.805248 25.821184-24.909824 26.210304z m0 0M206.835712 615.718912h55.134208c2.394112 0 5.044224-1.357824 5.820416-4.073472l28.084224-74.8032a6.664192 6.664192 0 0 1 5.953536-4.077568h106.313728c2.523136 0 4.917248 1.486848 5.953536 4.077568l28.080128 74.8032a6.150144 6.150144 0 0 0 5.697536 4.073472h55.257088a6.086656 6.086656 0 0 0 5.052416-2.715648 6.995968 6.995968 0 0 0 1.032192-6.08256l-123.332608-310.601728a6.78912 6.78912 0 0 0-5.953536-3.878912H330.36288a6.279168 6.279168 0 0 0-5.953536 3.878912L201.207808 606.922752c-0.774144 1.939456-0.774144 4.462592 0.391168 6.08256 1.292288 1.683456 3.426304 2.779136 5.562368 2.715648h-0.325632z m113.760256-145.463296l33.51552-84.375552c0.647168-0.9728 1.875968-2.009088 2.912256-2.009088 1.357824 0 2.656256 1.101824 3.04128 2.009088l33.64864 84.57216c0.182272 0.9728 0.094208 1.978368-0.262144 2.906112-0.903168 0.843776-1.613824 1.55648-2.779136 1.55648h-67.10272c-0.780288 0-2.009088-0.774144-2.783232-1.55648a5.431296 5.431296 0 0 1-0.190464-3.10272z m236.83072 145.463296h108.189696c53.450752 0 94.150656-14.168064 122.363904-43.419648 26.92096-27.953152 40.185856-67.231744 40.185856-118.155264 0-50.864128-13.264896-90.39872-39.08608-117.704704-28.342272-29.442048-68.97664-43.937792-122.619904-43.937792h-109.09696c-3.04128 0-6.47168 1.421312-8.994816 3.559424a16.295936 16.295936 0 0 0-3.4304 9.316352v297.59488a12.61568 12.61568 0 0 0 12.488704 12.746752z m101.787648-271.31904c38.047744 0 65.998848 8.28416 83.664896 25.751552 16.697344 17.215488 25.430016 44.136448 25.430016 81.666048 0 36.427776-8.732672 63.606784-26.140672 81.012736-17.664 17.664-45.750272 26.658816-83.535872 26.658816h-47.888384a5.742592 5.742592 0 0 1-4.52608-1.81248c-1.292288-1.292288-1.746944-2.586624-1.746944-4.591616V350.74048c0-3.489792 2.65216-6.33856 6.344704-6.33856h48.398336z m0 0" p-id="5828"></path></svg>
