<svg class="icon" style="width: 1em; height: 1em;vertical-align: middle;fill: currentColor;overflow: hidden;" viewBox="0 0 1024 1024" version="1.1" xmlns="http://www.w3.org/2000/svg" p-id="11157"><path d="M182.7 763.6c-43.4 0-78.6-35.3-78.6-78.6V498.5c0-43.4 35.3-78.6 78.6-78.6s78.6 35.3 78.6 78.6V685c0.1 43.4-35.2 78.6-78.6 78.6z m0-279.8c-8.1 0-14.6 6.6-14.6 14.6V685c0 8.1 6.6 14.6 14.6 14.6s14.6-6.6 14.6-14.6V498.5c0.1-8.1-6.5-14.7-14.6-14.7zM400.4 763.6c-43.4 0-78.6-35.3-78.6-78.6V405.2c0-43.4 35.3-78.6 78.6-78.6s78.6 35.3 78.6 78.6V685c0 43.4-35.3 78.6-78.6 78.6z m0-373.1c-8.1 0-14.6 6.6-14.6 14.6V685c0 8.1 6.6 14.6 14.6 14.6S415 693.1 415 685V405.2c0-8.1-6.6-14.7-14.6-14.7zM618 763.6c-43.4 0-78.6-35.3-78.6-78.6V311.9c0-43.4 35.3-78.6 78.6-78.6s78.6 35.3 78.6 78.6V685c0 43.4-35.2 78.6-78.6 78.6z m0-466.3c-8.1 0-14.6 6.6-14.6 14.6V685c0 8.1 6.6 14.6 14.6 14.6s14.6-6.6 14.6-14.6V311.9c0-8.1-6.5-14.6-14.6-14.6zM835.6 763.6c-43.4 0-78.6-35.3-78.6-78.6V218.6c0-43.4 35.3-78.6 78.6-78.6s78.6 35.3 78.6 78.6V685c0.1 43.4-35.2 78.6-78.6 78.6z m0-559.6c-8.1 0-14.6 6.6-14.6 14.6V685c0 8.1 6.6 14.6 14.6 14.6s14.6-6.6 14.6-14.6V218.6c0.1-8-6.5-14.6-14.6-14.6zM105 824h808.4v64H105z" p-id="11158"></path></svg>
