<svg class="icon" style="width: 1.0771484375em; height: 1em;vertical-align: middle;fill: currentColor;overflow: hidden;" viewBox="0 0 1103 1024" version="1.1" xmlns="http://www.w3.org/2000/svg" p-id="10439"><path d="M83.954488 945.987616 1027.803404 945.987616 1027.803404 981.00176 83.954488 981.00176 83.954488 945.987616 83.954488 945.987616ZM151.172084 830.55977 258.021481 830.55977C295.318701 830.55977 325.658547 800.272231 325.658547 763.054631L325.658547 549.159185C325.658547 511.927591 295.317622 481.641129 258.021481 481.641129L151.172084 481.641129C113.874863 481.641129 83.535018 511.928667 83.535018 549.159185L83.535018 763.05463C83.535018 800.273308 113.874863 830.55977 151.172084 830.55977ZM118.610882 549.159185C118.610882 531.231226 133.213604 516.655275 151.172084 516.655275L258.021481 516.655275C275.981039 516.655275 290.582683 531.232304 290.582683 549.159185L290.582683 763.05463C290.582683 780.96967 275.97996 795.545622 258.021481 795.545622L151.172084 795.545622C133.212525 795.545622 118.610882 780.968594 118.610882 763.05463L118.610882 549.159185ZM502.062277 830.55977 608.911674 830.55977C646.208894 830.55977 676.54874 800.272231 676.54874 763.054631L676.548739 146.597684C676.548739 109.366089 646.207814 79.079628 608.911673 79.079628L502.062275 79.079628C464.777996 79.079628 434.43815 109.367166 434.43815 146.597684L434.43815 763.054631C434.437072 800.273308 464.777996 830.55977 502.062277 830.55977ZM469.512936 146.597684C469.512936 128.669726 484.115658 114.093774 502.061198 114.093774L608.910595 114.093774C626.870153 114.093774 641.471797 128.670803 641.471797 146.597684L641.471797 763.054631C641.471797 780.969671 626.869075 795.545623 608.910595 795.545623L502.061198 795.545623C484.114579 795.545623 469.512936 780.968595 469.512936 763.054631L469.512936 146.597684ZM852.958939 830.55977 959.820201 830.55977C997.104475 830.55977 1027.444326 800.272231 1027.444326 763.054631L1027.444326 329.670604C1027.444326 292.43901 997.103395 262.152548 959.820201 262.152548L852.958939 262.152548C815.674659 262.152548 785.334814 292.440087 785.334814 329.670604L785.334814 763.05463C785.333735 800.273308 815.674659 830.55977 852.958939 830.55977ZM820.409598 329.670604C820.409598 311.742646 835.01232 297.166694 852.95786 297.166694L959.819122 297.166694C977.765738 297.166694 992.36738 311.743724 992.36738 329.670604L992.36738 763.05463C992.36738 780.96967 977.764659 795.545622 959.819122 795.545622L852.95786 795.545622C835.011242 795.545622 820.409598 780.968594 820.409598 763.05463L820.409598 329.670604 820.409598 329.670604Z" p-id="10440"></path></svg>
