<svg class="icon" style="width: 1.005859375em; height: 1em;vertical-align: middle;fill: currentColor;overflow: hidden;"
     viewBox="0 0 1030 1024" version="1.1" xmlns="http://www.w3.org/2000/svg" p-id="3725">
  <path
    d="M832 908.8h-166.4V832c0-19.2-19.2-38.4-38.4-38.4H390.4c-19.2 0-38.4 12.8-38.4 38.4v76.8H192c-19.2 0-32 12.8-32 32s12.8 32 32 32H838.4c19.2 0 32-12.8 32-32 0-12.8-19.2-32-38.4-32z m121.6-896H70.4C32 12.8 0 44.8 0 83.2v614.4c0 38.4 32 70.4 70.4 70.4h876.8c38.4 0 70.4-32 70.4-70.4V83.2c6.4-38.4-25.6-70.4-64-70.4zM294.4 601.6c0 19.2-19.2 38.4-38.4 38.4h-44.8c-19.2 0-38.4-12.8-38.4-38.4v-64c0-19.2 19.2-38.4 38.4-38.4H262.4c19.2 0 38.4 19.2 38.4 38.4v64z m166.4 0c0 19.2-12.8 38.4-38.4 38.4h-44.8c-19.2 0-38.4-12.8-38.4-38.4V428.8c0-19.2 12.8-38.4 38.4-38.4h51.2c19.2 0 38.4 12.8 38.4 38.4v172.8z m198.4 0c0 19.2-12.8 38.4-38.4 38.4h-51.2c-19.2 0-38.4-12.8-38.4-38.4v-384c0-19.2 12.8-38.4 38.4-38.4h51.2c19.2 0 38.4 12.8 38.4 38.4v384z m192 0c0 19.2-12.8 38.4-38.4 38.4h-51.2c-19.2 0-38.4-12.8-38.4-38.4V320c0-19.2 12.8-38.4 38.4-38.4h51.2c19.2 0 38.4 19.2 38.4 38.4v281.6z m0 0"
    fill="#05C6E5" p-id="3726"></path>
</svg>
