<svg class="icon" style="width: 1em; height: 1em;vertical-align: middle;fill: currentColor;overflow: hidden;"
     viewBox="0 0 1024 1024" version="1.1" xmlns="http://www.w3.org/2000/svg" p-id="8846">
  <path
    d="M444.8 510.4c132.8 0 241.6-107.2 241.6-240v-1.6c0-134.4-35.2-264-241.6-264-202.4 0-241.6 129.6-241.6 264 0 132.8 107.2 241.6 240 241.6h1.6z m146.4 21.6H224.8C104 532 4.8 631.2 4.8 752s99.2 220 220 220h458.4c-23.2 0-162.4-99.2-162.4-220 0-165.6 70.4-220 70.4-220z"
    fill="rgb(51, 161, 201)" p-id="8847"></path>
  <path
    d="M803.2 935.2c-29.6 0-58.4-5.6-84.8-16.8s-50.4-27.2-70.4-47.2c-20-20-36-43.2-47.2-70.4-11.2-26.4-16.8-55.2-16.8-84.8s5.6-58.4 16.8-84.8 27.2-49.6 47.2-69.6c20-20 43.2-35.2 70.4-46.4 26.4-11.2 55.2-16.8 84.8-16.8s58.4 5.6 84.8 16.8c26.4 11.2 49.6 27.2 69.6 46.4 20 20 35.2 42.4 46.4 69.6 11.2 26.4 16.8 55.2 16.8 84.8 0 29.6-5.6 58.4-16.8 84.8-11.2 26.4-27.2 50.4-46.4 70.4-20 20-42.4 36-69.6 47.2s-54.4 16.8-84.8 16.8zM911.2 680H832v-73.6c0-9.6-3.2-18.4-9.6-25.6-6.4-7.2-14.4-10.4-24.8-10.4-9.6 0-17.6 3.2-23.2 10.4-5.6 7.2-8.8 16-8.8 25.6V680H696c-9.6 0-18.4 3.2-25.6 10.4-7.2 7.2-10.4 16-10.4 25.6 0 9.6 3.2 17.6 10.4 22.4 7.2 4.8 16 7.2 25.6 7.2h69.6v76c0 9.6 3.2 18.4 8.8 25.6 5.6 7.2 13.6 10.4 23.2 10.4s18.4-3.2 24.8-10.4 9.6-16 9.6-25.6v-76h79.2v2.4c9.6 0 18.4-3.2 25.6-8.8 7.2-5.6 10.4-13.6 10.4-23.2s-3.2-18.4-10.4-25.6c-6.4-6.4-15.2-10.4-25.6-10.4z"
    fill="rgb(94, 239, 240)" p-id="8848"></path>
</svg>
