<svg class="icon" style="width: 1.06640625em; height: 1em;vertical-align: middle;fill: currentColor;overflow: hidden;"
     viewBox="0 0 1092 1024" version="1.1" xmlns="http://www.w3.org/2000/svg" p-id="8004">
  <path
    d="M283.374933 415.812267l239.4112 117.1456v-275.114667L283.306667 143.428267v272.384z m284.4672-155.170134v272.725334l236.202667-114.414934v-273.749333l-236.202667 115.370667zM547.0208 0L313.890133 111.274667l233.130667 111.274666 230.058667-111.274666L546.952533 0zM0 883.9168l239.4112 117.213867v-275.114667L0 611.601067v272.384z m284.4672-155.170133v272.725333l236.202667-114.414933v-273.749334l-236.202667 115.438934z m-20.821333-260.642134L30.5152 579.3792l233.130667 111.342933 230.058666-111.274666-230.058666-111.274667z m307.882666 415.812267l239.4112 117.213867v-275.114667L571.528533 611.601067v272.384z m284.4672-155.170133v272.725333L1092.266667 887.057067v-273.749334l-236.202667 115.438934z m-20.821333-260.642134L602.112 579.3792l233.130667 111.342933 230.058666-111.274666-230.058666-111.274667z"
    p-id="8005"></path>
</svg>
