<svg class="icon" style="width: 1em; height: 1em;vertical-align: middle;fill: currentColor;overflow: hidden;" viewBox="0 0 1024 1024" version="1.1" xmlns="http://www.w3.org/2000/svg" p-id="8320"><path d="M286.790004 771.549985h132.859998V638.699988H286.790004zM404.400002 107.599998h215.199996a53.799999 53.799999 0 1 0 0-107.599998H404.400002a53.799999 53.799999 0 1 0 0 107.599998z m484.199991-53.689999H754.099995c0 59.179999-48.419999 107.599998-107.599998 107.599998h-268.999994c-59.179999 0-107.599998-48.419999-107.599998-107.599998H135.400007a80.649998 80.649998 0 0 0-80.699998 80.699998V943.299982a80.649998 80.649998 0 0 0 80.699998 80.699998h753.199986a80.649998 80.649998 0 0 0 80.699998-80.699998V134.609997a80.719998 80.719998 0 0 0-80.699998-80.699998zM472.790001 771.549985a53.299999 53.299999 0 0 1-53.139999 53.139999H286.790004a53.299999 53.299999 0 0 1-53.139999-53.139999V638.699988a53.299999 53.299999 0 0 1 53.139999-53.139999h132.859998a53.299999 53.299999 0 0 1 53.139999 53.139999zM502 354.389993L353.220003 505.83999c-10.63 10.63-26.569999 10.63-37.199999 0a26.559999 26.559999 0 0 1-5.42-7.84L239.000005 428.789992c-8-10.63-8-26.569999 0-37.2 10.63-10.63 29.229999-10.63 39.86 0l55.799998 55.799999 130.189998-130.199997c10.63-10.63 26.569999-10.63 37.199999 0s10.59 26.569999-0.05 37.199999z m262.429995 456.699991h-185.999996c-15.94 0-26.569999-10.63-26.57-26.569999S562.509999 757.999985 578.449999 757.999985h185.999996c15.94 0 26.569999 10.63 26.57 26.57s-10.64 26.519999-26.58 26.519999z m0-132.849997h-185.999996c-15.94 0-26.569999-10.63-26.57-26.57s10.63-26.569999 26.57-26.569999h185.999996c15.94 0 26.569999 10.63 26.57 26.569999s-10.62 26.569999-26.56 26.57z m0-159.419997h-185.999996c-15.94 0-26.569999-10.63-26.57-26.57s10.63-26.569999 26.57-26.569999h185.999996c15.94 0 26.569999 10.63 26.57 26.569999s-10.62 26.569999-26.56 26.57z m0-132.849998h-185.999996c-15.94 0-26.569999-10.63-26.57-26.569999s10.63-26.569999 26.57-26.57h185.999996c15.94 0 26.569999 10.63 26.57 26.57S780.379995 385.999992 764.439995 385.999992z" fill="currentColor" p-id="8321"></path></svg>
