<svg class="icon" style="width: 1em; height: 1em;vertical-align: middle;fill: currentColor;overflow: hidden;" viewBox="0 0 1024 1024" version="1.1" xmlns="http://www.w3.org/2000/svg" p-id="2855"><path d="M294.0928 375.4496a51.2 51.2 0 0 1 50.944-51.2h41.472c28.1088 0 50.8928 22.9888 50.8928 51.2V503.808a51.2 51.2 0 0 1-50.8928 51.2h-41.472a51.0976 51.0976 0 0 1-50.944-51.2V375.4496z" fill="#F93F42" opacity=".307" p-id="2856"></path><path d="M294.0928 214.6816c0-21.76 17.5104-39.3728 39.2192-39.3728h354.816c21.6576 0 39.2192 17.5104 39.2192 39.424 0 21.7088-17.5104 39.3728-39.2192 39.3728H333.312a39.2192 39.2192 0 0 1-39.2192-39.424z m197.7344 167.424c0-21.76 17.664-39.3728 38.912-39.3728h157.696c21.504 0 38.912 17.4592 38.912 39.424 0 21.7088-17.7152 39.3216-38.912 39.3216h-157.696a39.0656 39.0656 0 0 1-38.912-39.3728z m387.9936 98.9696a333.5168 333.5168 0 0 0-78.1312-48.128V134.3488c0-28.16-23.0912-51.2-51.6608-51.2H271.4112a51.2 51.2 0 0 0-51.712 51.2v726.016c0 28.2112 23.1936 51.2 51.712 51.2h111.2576a335.104 335.104 0 0 0 65.8432 78.1312H295.424a154.112 154.112 0 0 1-153.856-153.856V158.976A153.8048 153.8048 0 0 1 295.4752 5.12h430.4896a154.112 154.112 0 0 1 153.856 153.856v322.048z m-84.0192 431.104l-18.6368-24.9856 34.4576-47.0016a176.4352 176.4352 0 1 0-318.8224-104.1408 176.2816 176.2816 0 0 0 174.8992 176.4352h3.328l124.7744-0.3072z m-127.8976 79.0528a255.1808 255.1808 0 1 1 207.2064-104.448l77.4656 103.7824-281.344 0.6656a260.4032 260.4032 0 0 1-2.816 0h-0.512z m1.1776-216.4736a37.4784 37.4784 0 1 1 0-74.9568 37.4784 37.4784 0 0 1 0 74.9568z m111.4624 0a37.4784 37.4784 0 1 1 0-74.9568 37.4784 37.4784 0 0 1 0 74.9568z m-222.8736 0a37.4784 37.4784 0 1 1 0-74.9568 37.4784 37.4784 0 0 1 0 74.9568z" p-id="2857"></path></svg>
