<svg class="icon" style="width: 1em; height: 1em;vertical-align: middle;fill: currentColor;overflow: hidden;" viewBox="0 0 1024 1024" version="1.1" xmlns="http://www.w3.org/2000/svg" p-id="3881"><path d="M354.304 943.9232h314.368c26.2144 0 39.3216 13.1072 39.3216 39.3216 0 26.2144-13.1072 39.3216-39.3216 39.3216H354.304c-26.2144 0-39.3216-13.1072-39.3216-39.3216 0-26.2144 13.1072-39.3216 39.3216-39.3216z m0 0M79.2576 79.2576v707.3792h864.6656V79.2576H79.2576z m0-78.6432h864.6656c43.4176 0 78.6432 35.2256 78.6432 78.6432v707.3792c0 43.4176-35.2256 78.6432-78.6432 78.6432H79.2576C35.84 865.28 0.6144 830.0544 0.6144 786.6368V79.2576C0.6144 35.84 35.84 0.6144 79.2576 0.6144z m0 0" fill="#c2cdf2" p-id="3882"></path><path d="M354.304 472.2688c26.2144 0 39.3216 13.1072 39.3216 39.3216v314.368c0 26.2144-13.1072 39.3216-39.3216 39.3216-26.2144 0-39.3216-13.1072-39.3216-39.3216V511.5904c0-26.2144 13.1072-39.3216 39.3216-39.3216z m0 0M511.5904 393.6256c26.2144 0 39.3216 13.1072 39.3216 39.3216v393.0112c0 26.2144-13.1072 39.3216-39.3216 39.3216-26.2144 0-39.3216-13.1072-39.3216-39.3216V432.9472c0-26.2144 13.1072-39.3216 39.3216-39.3216z m0 0M668.8768 550.912c26.2144 0 39.3216 13.1072 39.3216 39.3216v235.9296c0 26.2144-13.1072 39.3216-39.3216 39.3216-26.2144 0-39.3216-13.1072-39.3216-39.3216V590.2336c0-26.2144 13.1072-39.3216 39.3216-39.3216z m0 0" fill="#c2cdf2" p-id="3883"></path></svg>
