<svg class="icon" style="width: 1em; height: 1em;vertical-align: middle;fill: currentColor;overflow: hidden;" viewBox="0 0 1024 1024" version="1.1" xmlns="http://www.w3.org/2000/svg" p-id="6576"><path d="M921.543681 204.791808h-76.796928V76.796928a76.796928 76.796928 0 0 0-76.796928-76.796928H102.376448a76.796928 76.796928 0 0 0-76.796928 76.796928v870.365186a76.796928 76.796928 0 0 0 76.796928 76.796928h767.969281a25.598976 25.598976 0 0 0 8.447662-1.791929A102.395904 102.395904 0 0 0 895.944705 1023.959042a99.580017 99.580017 0 0 0 102.395905-102.395905V281.588736a76.796928 76.796928 0 0 0-76.796929-76.796928zM76.777472 947.162114V76.796928a25.598976 25.598976 0 0 1 25.598976-25.598976h665.573377a25.598976 25.598976 0 0 1 25.598976 25.598976v844.766209a102.395904 102.395904 0 0 0 14.335427 51.197953H102.376448a25.598976 25.598976 0 0 1-25.598976-25.598976z m870.365185-25.598977a48.126075 48.126075 0 0 1-51.197952 51.197953 51.197952 51.197952 0 0 1-51.197952-51.197953V255.98976h76.796928a25.598976 25.598976 0 0 1 25.598976 25.598976z" fill="#666666" p-id="6577"></path><path d="M179.173376 435.182593h204.791809a25.598976 25.598976 0 0 0 25.598976-25.598976V204.791808a25.598976 25.598976 0 0 0-25.598976-25.598976H179.173376a25.598976 25.598976 0 0 0-25.598976 25.598976v204.791809a25.598976 25.598976 0 0 0 25.598976 25.598976z m25.598976-204.791809h153.593857v153.593857H204.772352zM691.152897 182.00872h-204.791808a22.783089 22.783089 0 0 0 0 45.822167h204.791808a22.783089 22.783089 0 0 0 0-45.822167zM691.152897 284.404624h-204.791808a22.783089 22.783089 0 0 0 0 45.822167h204.791808a22.783089 22.783089 0 0 0 0-45.822167zM691.152897 386.800528h-204.791808a22.783089 22.783089 0 0 0 0 45.822167h204.791808a22.783089 22.783089 0 0 0 0-45.822167zM281.56928 797.664093H179.173376a21.50314 21.50314 0 0 0 0 43.26227h102.395904a21.50314 21.50314 0 0 0 0-43.26227zM691.152897 796.384145H383.965185a22.783089 22.783089 0 0 0 0 45.822167h307.187712a22.783089 22.783089 0 0 0 0-45.822167zM156.902267 563.177473a22.271109 22.271109 0 0 0 22.271109 22.271109h511.979521a22.271109 22.271109 0 0 0 0-44.798208H179.173376a22.271109 22.271109 0 0 0-22.271109 22.527099zM179.173376 713.443462h511.979521a22.271109 22.271109 0 0 0 0-44.798208H179.173376a22.271109 22.271109 0 0 0 0 44.798208z" fill="#666666" p-id="6578"></path></svg>
