<svg class="icon" style="width: 1em; height: 1em;vertical-align: middle;fill: currentColor;overflow: hidden;" viewBox="0 0 1024 1024" version="1.1" xmlns="http://www.w3.org/2000/svg" p-id="23032"><path d="M707.08736 61.44H495.76448c-25.66656 0-45.29152 20.42368-45.29152 47.13984v722.80064H390.08768V108.57984c0-25.1392-19.62496-47.13984-45.2864-47.13984H133.47328c-25.66144 0-45.2864 20.42368-45.2864 47.13984v817.09568c0 25.12896 19.62496 47.13472 45.2864 47.13472h211.33312c25.66144 0 45.29152-20.41856 45.29152-47.13472v-31.43168h60.38016v31.43168c0 25.12896 19.61984 47.13472 45.29152 47.13472h211.328c25.6512 0 45.2864-20.41856 45.2864-47.13472V108.57984c-0.01536-26.71616-19.64032-47.13984-45.29664-47.13984zM224.04096 894.23872H163.6608v-62.85824h60.38016v62.85824z m90.5728-691.37408H163.6608V140.0064h150.95296v62.85824z m271.7184 691.37408h-60.38016v-62.85824h60.38016v62.85824z m90.56256-691.37408h-150.94272V140.0064h150.94272v62.85824zM904.82688 972.8c-24.15616 0-43.77088-20.41344-43.77088-45.57312V107.008c0-25.14432 19.61472-45.568 43.77088-45.568 24.16128 0 43.78624 20.42368 43.78624 45.568v820.21888c-0.00512 25.15968-19.63008 45.57312-43.78624 45.57312zM358.61504 440.61184c0 7.10656-5.5808 12.91264-12.40576 12.91264H134.6304c-6.82496 0-12.40064-5.8112-12.40064-12.91264v-18.90304c0-7.10656 5.5808-12.91264 12.40064-12.91264h211.57376c6.82496 0 12.40576 5.8112 12.40576 12.91264l0.00512 18.90304zM358.61504 507.7248c0 7.10144-5.5808 12.90752-12.40576 12.90752H134.6304c-6.82496 0-12.40064-5.80608-12.40064-12.90752v-18.90304c0-7.10656 5.5808-12.91264 12.40064-12.91264h211.57376c6.82496 0 12.40576 5.80608 12.40576 12.91264l0.00512 18.90304zM358.61504 574.82752c0 7.11168-5.5808 12.91776-12.40576 12.91776H134.6304c-6.82496 0-12.40064-5.8112-12.40064-12.91776v-18.8928c0-7.1168 5.5808-12.92288 12.40064-12.92288h211.57376c6.82496 0 12.40576 5.8112 12.40576 12.92288l0.00512 18.8928zM358.61504 729.12896c0 7.10656-5.5808 12.91776-12.40576 12.91776H134.6304c-6.82496 0-12.40064-5.81632-12.40064-12.91776v-18.89792c0-7.11168 5.5808-12.91776 12.40064-12.91776h211.57376c6.82496 0 12.40576 5.8112 12.40576 12.91776l0.00512 18.89792zM358.61504 647.11168c0 7.10656-5.5808 12.91264-12.40576 12.91264H134.6304c-6.82496 0-12.40064-5.8112-12.40064-12.91264v-18.89792c0-7.1168 5.5808-12.92288 12.40064-12.92288h211.57376c6.82496 0 12.40576 5.8112 12.40576 12.92288l0.00512 18.89792zM358.61504 373.50912c0 7.10656-5.5808 12.91264-12.40576 12.91264H134.6304c-6.82496 0-12.40064-5.80608-12.40064-12.91264v-18.91328c0-7.10656 5.5808-12.90752 12.40064-12.90752h211.57376c6.82496 0 12.40576 5.80608 12.40576 12.90752l0.00512 18.91328zM358.61504 291.48672c0 7.10656-5.5808 12.90752-12.40576 12.90752H134.6304c-6.82496 0-12.40064-5.80608-12.40064-12.90752v-18.90816c0-7.10656 5.5808-12.91776 12.40064-12.91776h211.57376c6.82496 0 12.40576 5.8112 12.40576 12.91776l0.00512 18.90816zM332.35968 879.54432c0 11.80672-1.45408 21.43744-3.21536 21.43744H274.28352c-1.77152 0-3.21536-9.63584-3.21536-21.43744v-31.38048c0-11.81184 1.45408-21.44768 3.21536-21.44768h54.85568c1.7664 0 3.21024 9.64608 3.21024 21.44768l0.01024 31.38048z" p-id="23033"></path></svg>
