<svg class="icon" style="width: 1em; height: 1em;vertical-align: middle;fill: currentColor;overflow: hidden;"
     viewBox="0 0 1024 1024" version="1.1" xmlns="http://www.w3.org/2000/svg" p-id="5771">
  <path
    d="M763 878.8v-0.6l-0.1 0.1H148.3l-0.1-0.1V150.6l0.1-0.1h614.6l0.1 0.1v354.3h50V150.5c0-27.5-22.5-50-50-50H148.2c-27.5 0-50 22.5-50 50v727.8c0 27.5 22.5 50 50 50H763c27.5 0 50-22.5 50-50v0.5h-50z"
    fill="#999999" p-id="5772"></path>
  <path
    d="M192 294.6h421.1v50H192zM192 486.8h328.3v50H192zM192 679.2h328.3v50H192zM786.6 594.3c8.6 0 17 1.1 25 3.3v-46.8h-50v46.8c8-2.2 16.3-3.3 25-3.3zM786.6 787.2c-8.6 0-17-1.1-25-3.3v46.8h50V784c-8 2.1-16.4 3.2-25 3.2zM703 739l-33.1 33.1 35.4 35.4 33.1-33.1c-14.7-8.5-26.9-20.8-35.4-35.4zM870.2 642.5l33.1-33.1-35.4-35.4-33.1 33.1c14.7 8.6 26.9 20.8 35.4 35.4zM690.1 690.8c0-8.6 1.1-17 3.3-25h-46.8v50h46.8c-2.2-8-3.3-16.4-3.3-25zM879.8 665.8c2.1 8 3.3 16.4 3.3 25s-1.1 17-3.3 25h46.8v-50h-46.8z"
    fill="#999999" p-id="5773"></path>
  <path
    d="M738.4 607.2l-33.1-33.1-35.4 35.4 33.1 33.1c8.5-14.7 20.7-26.9 35.4-35.4zM870.2 739c-8.5 14.7-20.7 26.9-35.4 35.4l33.1 33.1 35.4-35.4-33.1-33.1z"
    fill="#999999" p-id="5774"></path>
  <path
    d="M786.6 631.8c32.5 0 59 26.5 59 59s-26.5 59-59 59-59-26.5-59-59 26.5-59 59-59m0-50c-60.2 0-109 48.8-109 109s48.8 109 109 109 109-48.8 109-109-48.8-109-109-109z"
    fill="#999999" p-id="5775"></path>
</svg>
