<svg class="icon" style="width: 1em; height: 1em;vertical-align: middle;fill: currentColor;overflow: hidden;"
     viewBox="0 0 1024 1024" version="1.1" xmlns="http://www.w3.org/2000/svg" p-id="16428">
  <path
    d="M422.306 390.429c10.181 10.181 26.72 10.108 36.901-0.073l112.431-112.927c25.085-21.097 52.136-35.523 80.492-42.929h0.073c30.469-8.068 61.747-7.167 93.19 2.683h0.092c28.099 8.729 54.58 24.699 76.504 46.2 21.575 21.097 37.802 46.77 46.917 74.299 9.612 29.569 10.677 59.064 3.106 87.567-3.676 13.93 4.557 28.19 18.487 31.866 2.279 0.57 4.484 0.9 6.671 0.9 11.577 0 22.089-7.755 25.177-19.388 10.181-38.464 8.876-77.901-3.914-117.154l-0.074-0.166c-11.816-35.358-32.509-68.271-59.965-95.157-27.86-27.29-61.508-47.578-97.509-58.733-40.338-12.717-82.605-13.856-122.116-3.345-36.258 9.446-70.476 27.786-101.754 54.249l-0.827 0.735-23.706 23.798-11.559-11.486-1.709-1.709c-34.622-32.914-72.994-55.076-114.048-65.919-39.437-10.254-81.558-9.041-121.804 3.584-36.332 11.32-70.072 31.609-97.509 58.825-27.713 27.125-48.479 59.965-60.203 95.065v0.092c-12.882 39.107-14.187 78.525-4.006 117.228v0.166c10.273 38.041 32.509 75.199 64.449 107.451L346.06 746.118a26 26 0 0 0 18.414 7.663c6.671 0 13.36-2.536 18.395-7.663 10.181-10.181 10.181-26.72 0-36.901l-179.71-179.894c-25.507-25.728-43.186-54.893-51.088-84.149-7.571-28.76-6.505-58.256 3.106-87.493 9.115-27.29 25.416-52.963 47.174-74.299l0.074-0.074c21.501-21.354 47.983-37.324 76.412-46.126h0.092c30.874-9.685 63.052-10.751 92.951-2.922 32.344 8.545 62.978 26.39 91.169 53.036l12.699 12.533-53.606 53.863c-10.108 10.016-10.016 26.556 0.164 36.737"
    fill="#FFF" p-id="16429"></path>
  <path
    d="M914.933 455.846L810.495 351.409c-8.711-8.711-20.288-13.526-32.582-13.526-12.313 0-23.872 4.815-32.675 13.526L472.081 624.567c-5.55 5.55-9.611 12.478-11.817 20.049L419.54 788.399c-4.484 15.97-0.092 33.244 11.559 45.061 8.637 8.711 20.619 13.691 32.84 13.691 4.061 0 8.141-0.588 12.055-1.636l145.253-39.272c7.737-2.113 14.904-6.267 20.527-11.89l273.158-273.158c8.729-8.729 13.526-20.288 13.526-32.674 0-12.294-4.796-23.945-13.525-32.675z m-442.282 336.54l32.675-115.261 83.818 83.818-116.493 31.443z m159.513-62.151l-96.057-95.965 241.714-241.714 96.057 96.039-241.714 241.64z"
    fill="#FFF" p-id="16430"></path>
</svg>
