<svg class="icon" style="width: 1em; height: 1em;vertical-align: middle;fill: currentColor;overflow: hidden;" viewBox="0 0 1024 1024" version="1.1" xmlns="http://www.w3.org/2000/svg" p-id="1342"><path d="M874.292809 149.834641c199.60593 199.807072 199.60593 524.651278 0 724.330352A509.437635 509.437635 0 0 1 512.054491 1023.99744a508.395354 508.395354 0 0 1-362.165175-149.942161C53.194907 777.3243 0.002011 648.812896 0.002011 511.999817A508.157641 508.157641 0 0 1 150.145314 149.944355 508.395354 508.395354 0 0 1 512.127634 0.002194a509.364492 509.364492 0 0 1 362.165175 149.832447z m-141.439343 502.379382l-176.950036-102.399524V270.66608a42.678659 42.678659 0 0 0-85.393889 0v298.677471c0 15.743927 19.730194 29.110722 32.456992 36.479831 3.583983 5.247976 13.311938 9.983954 19.145054 13.494794l176.108897 106.623505c20.223906 11.775945 42.495803 4.607979 54.271748-15.615928 11.702803-20.223906 0.841139-46.335785-19.638766-58.11173z" p-id="1343"></path></svg>
