<svg class="icon" style="width: 1em; height: 1em;vertical-align: middle;fill: currentColor;overflow: hidden;" viewBox="0 0 1024 1024" version="1.1" xmlns="http://www.w3.org/2000/svg" p-id="3937"><path d="M971.627952 363.499438c-17.19004-36.621365-50.00739-57.060241-92.427309-57.574297-35.408193-0.328996-115.539277-0.246747-174.038876-0.185061H462.650602l4.235824-3.495582c25.558876-20.829558 38.266345-51.734618 33.989397-82.639679-4.318072-31.953735-25.78506-58.520161-58.78747-72.810923-38.759839-16.81992-78.506667-9.993253-111.899759 19.246265-49.123213 42.995663-98.698795 86.752129-146.732208 129.089799l-9.170764 8.101526a8.512771 8.512771 0 0 1-6.68273 2.83759c-16.038554-0.143936-32.303293-0.143936-48.033414-0.143935s-31.871486 0-47.91004-0.143936c-21.30249 0-23.605462 16.100241-23.605462 23.050281 0.143936 151.358715 0.143936 304.979277 0 456.625863 0 14.064578 8.389398 22.474538 22.618474 22.474539 33.208032-0.143936 66.642249 0 99.706345-0.143936a18.506024 18.506024 0 0 1 9.150201 2.056225c19.822008 10.795181 39.973012 21.590361 59.486586 32.015421l11.638233 6.168675a43.016225 43.016225 0 0 0 21.179117 5.30506h252.093172a119.363855 119.363855 0 0 0 30.391004-4.112449c54.798394-13.324337 71.638876-56.566747 69.109719-92.776868a85.251084 85.251084 0 0 0-7.566907-28.88996c27.512289-11.69992 45.524819-30.041446 54.839518-55.764819 10.281124-28.787149 6.271486-56.299438-11.412048-80.665703 31.460241-26.977671 41.350683-60.206265 29.157269-97.588434h187.116465a109.80241 109.80241 0 0 0 33.290282-4.523694c28.787149-8.636145 51.796305-28.334779 63.290602-54.037591a84.531406 84.531406 0 0 0-0.514056-71.474377z m-546.174458-118.232932c-24.798072 22.31004-50.274699 44.764016-74.908273 66.457189l-14.969317 13.159839-0.308434 0.267309c-1.850602 1.727229-3.721767 3.413333-5.777992 5.263936-2.508594 2.261847-5.284498 4.74988-8.533333 7.793092l-28.437591 26.381366h582.425703a46.203373 46.203373 0 0 1 18.341526 2.981526h0.205623c13.817831 5.448996 21.631486 15.976867 20.397751 27.491727-1.172048 11.083052-13.180402 22.515663-26.23743 24.942008a73.407229 73.407229 0 0 1-13.447711 1.028112c-64.956145 0.143936-208.192771 0.143936-273.066667-0.143935-3.516145 0-12.810281 0-19.122891 7.443534a21.775422 21.775422 0 0 0-4.420884 17.868594v1.768354c0 1.501044-0.143936 3.310522-0.308433 5.222811-0.472932 5.860241-1.069237 13.139277 1.768353 20.562249 5.099438 13.015904 17.82747 13.90008 23.255904 14.270201 0.863614 0 2.056225 0.143936 2.734779 0.246747a54.428273 54.428273 0 0 1 14.393574 8.615582 24.242892 24.242892 0 0 1 8.2249 20.562249c-0.925301 8.2249-6.292048 15.709558-14.599197 20.562249-7.566908 4.338635-16.449799 5.921928-28.602089 5.12h-0.308433c-3.207711-0.143936-12.913092-0.575743-19.47245 6.970602a21.220241 21.220241 0 0 0-4.462008 17.82747v2.488032c0 1.521606-0.143936 3.331084-0.287872 5.243374-0.431807 5.716305-0.966426 12.851406 1.562731 20.068755l0.143936 0.390683c5.30506 13.941205 18.83502 14.290763 23.934458 14.393574h2.056225l1.83004 0.925301c5.448996 2.775904 10.178313 5.181687 13.365462 8.697831 7.155663 7.690281 9.396948 15.298313 6.867791 23.21478-3.125462 9.767068-13.3449 18.752771-23.893333 20.932369-7.77253 1.665542-16.161928 1.501044-25.04482 1.336546-5.325622-0.102811-10.815743-0.205622-16.449799 0a38.49253 38.49253 0 0 1-4.338634-0.37012c-6.168675-0.719679-16.696546-1.953414-24.510201 5.94249s-6.744418 18.238715-6.024739 24.489638a35.243695 35.243695 0 0 1 0.328996 4.11245v1.871165c0 8.019277 0 14.393574 4.359197 20.315502 4.626506 6.31261 11.000803 7.95759 18.362088 9.849317l0.966426 0.246747a35.963373 35.963373 0 0 1 19.287389 10.712932c9.150201 10.692369 8.451084 17.292851 6.477109 22.515662-4.29751 11.802731-12.645783 18.83502-25.579438 21.528675a69.438715 69.438715 0 0 1-11.720482 1.089799c-79.061847 0-160.837912 0-241.215743 0.143936a9.664257 9.664257 0 0 1-5.222811-1.233735c-19.493012-11.720482-39.644016-23.831647-59.753896-35.593253 0.143936-134.189237 0.143936-270.311325 0-404.603373 38.328032-33.578153 77.252369-67.855422 114.881285-101.104579l42.0498-37.012048c13.015904-11.473735 27.676787-13.941205 44.764016-7.525783 9.993253 3.742329 16.634859 10.733494 18.218152 19.164016s-2.117912 17.868594-10.178313 25.106506zM151.235341 742.420562c-12.933655-0.205622-25.682249-0.143936-37.341044 0 0.123373-123.784739 0.123373-249.091084 0-372.711325 12.337349 0.123373 24.900884 0.123373 37.361607 0-0.123373 62.118554-0.123373 125.018474-0.123374 185.944418v54.798393c-0.082249 43.24241-0.143936 87.903614 0.102811 131.968514z" fill="currentColor" p-id="3938"></path></svg>
