<svg class="icon" style="width: 1em; height: 1em;vertical-align: middle;fill: currentColor;overflow: hidden;"
     viewBox="0 0 1024 1024" version="1.1" xmlns="http://www.w3.org/2000/svg" p-id="7476">
  <path d="M170.666667 0h682.666666v1024l-341.333333-341.333333-341.333333 341.333333z" fill="#FF5F53"
        p-id="7477"></path>
  <path
    d="M452.266667 366.933333c4.266667-12.8 8.533333-21.333333 12.8-34.133333l29.866666 8.533333c0 8.533333-4.266667 17.066667-8.533333 25.6h209.066667v29.866667H473.6c-12.8 21.333333-29.866667 42.666667-46.933333 64V640h-29.866667v-149.333333c-17.066667 17.066667-38.4 29.866667-59.733333 46.933333l-17.066667-25.6c51.2-34.133333 89.6-72.533333 119.466667-115.2H332.8v-29.866667h119.466667z m-29.866667-85.333333v-34.133333h29.866667v29.866666h110.933333v-29.866666h29.866667v29.866666h98.133333v29.866667H593.066667V341.333333h-25.6v-34.133333H456.533333v29.866667h-34.133333v-29.866667H328.533333v-25.6h93.866667z m204.8 174.933333H486.4V426.666667h183.466667v21.333333c-21.333333 17.066667-42.666667 29.866667-64 46.933333v17.066667h93.866666v29.866667h-93.866666V597.333333c0 21.333333-12.8 34.133333-34.133334 34.133334H520.533333l-8.533333-21.333334h46.933333c8.533333 0 17.066667-4.266667 17.066667-17.066666v-46.933334H456.533333v-29.866666h119.466667v-25.6c12.8-8.533333 29.866667-21.333333 51.2-34.133334z"
    fill="#FFFFFF" p-id="7478"></path>
</svg>
