<svg class="icon" style="width: 1em; height: 1em;vertical-align: middle;fill: currentColor;overflow: hidden;"
     viewBox="0 0 1024 1024" version="1.1" xmlns="http://www.w3.org/2000/svg" p-id="603">
  <path
    d="M102.4 0h819.2v1024H102.4V0m225.792 57.344c-2.816 124.416-1.792 248.576-1.792 372.992l82.944-46.848c27.392 13.824 55.04 27.648 82.432 41.728 1.536-122.624 2.048-245.248-0.768-367.872-54.272 0.256-108.544 0.256-162.816 0M156.416 897.792c25.088 33.536 54.016 72.96 101.632 67.584 195.328 3.072 390.912 0 586.24 1.024 0-48.896 0.256-97.792 1.024-146.688-204.544 0.768-409.088-4.352-613.376 2.048-45.312-4.096-54.784 47.872-75.52 76.032z"
    fill="#38CA7C" p-id="604"></path>
  <path
    d="M328.192 57.344c54.272 0.256 108.544 0.256 162.816 0 2.816 122.624 2.304 245.248 0.768 367.872-27.392-14.08-55.04-27.904-82.432-41.728l-82.944 46.848c0-124.416-1.024-248.576 1.792-372.992zM156.416 897.792c20.736-28.16 30.208-80.128 75.52-76.032 204.288-6.4 408.832-1.28 613.376-2.048-0.768 48.896-1.024 97.792-1.024 146.688-195.328-1.024-390.912 2.048-586.24-1.024-47.616 5.376-76.544-34.048-101.632-67.584z"
    fill="#FFFFFF" p-id="605"></path>
</svg>
