<svg class="icon" style="width: 1em; height: 1em;vertical-align: middle;fill: currentColor;overflow: hidden;" viewBox="0 0 1024 1024" version="1.1" xmlns="http://www.w3.org/2000/svg" p-id="6498"><path d="M150.588235 0h722.82353c83.169882 0 150.588235 67.418353 150.588235 150.588235v722.82353c0 83.169882-67.418353 150.588235-150.588235 150.588235H150.588235C67.418353 1024 0 956.581647 0 873.411765V150.588235C0 67.418353 67.418353 0 150.588235 0z m368.128 309.443765c8.673882 1.129412 17.468235 1.686588 26.006589 3.493647 38.490353 8.116706 54.814118 57.705412 29.394823 87.883294-15.420235 18.311529-34.304 32.466824-53.308235 46.531765-48.700235 36.080941-74.029176 84.148706-73.758118 145.01647a46.682353 46.682353 0 0 0 5.451294 21.157647c9.005176 16.685176 24.124235 23.642353 42.797177 25.22353 33.400471 2.816 59.723294-25.645176 57.494588-52.464942-0.828235-9.878588 0.662588-20.464941 3.403294-30.057411 5.421176-18.989176 19.079529-32.557176 34.153412-44.333177 20.630588-16.082824 42.480941-30.674824 62.509176-47.450353 20.705882-17.347765 34.575059-39.725176 39.378824-66.846117 4.818824-27.075765 2.349176-53.835294-5.51153-80.00753-16.007529-53.368471-52.540235-85.564235-105.472-99.764706-29.967059-8.026353-60.611765-8.402824-91.301647-4.894117-47.841882 5.466353-90.051765 23.521882-124.807529 57.344-14.441412 14.034824-25.946353 30.358588-31.367529 50.115764-3.764706 13.793882-4.005647 27.678118 4.668235 39.981177 14.848 21.037176 46.426353 27.000471 69.451294 14.004706 10.992941-6.219294 17.829647-16.158118 25.374118-25.615059 10.194824-12.8 21.534118-24.184471 37.104941-30.569412 15.510588-6.339765 31.744-7.740235 48.338823-8.749176z m41.532236 443.105882v-8.914823c-0.030118-22.768941-11.038118-38.701176-31.156706-48.278589-18.221176-8.688941-37.376-8.312471-56.048941-1.927529-17.061647 5.827765-30.418824 17.046588-35.072 35.041882-2.484706 9.637647-1.972706 20.148706-2.123295 30.268236-0.331294 22.256941 11.414588 37.225412 30.328471 46.998588 14.757647 7.649882 30.795294 8.809412 46.938353 6.144 17.92-2.966588 31.924706-12.257882 41.185882-28.175059 5.888-10.119529 6.144-21.232941 5.948236-31.156706z" fill="#F1B619" p-id="6499"></path></svg>
