<svg class="icon" style="width: 1em; height: 1em;vertical-align: middle;fill: currentColor;overflow: hidden;" viewBox="0 0 1024 1024" version="1.1" xmlns="http://www.w3.org/2000/svg" p-id="3651"><path d="M868.873365 643.089903a1215.430875 1215.430875 0 0 1-327.664599 371.69453 41.982027 41.982027 0 0 1-52.221546 0 1149.897955 1149.897955 0 0 1-331.760407-375.790338A1296.323073 1296.323073 0 0 1 0.562176 155.688811a40.958075 40.958075 0 0 1 16.38323-39.934123A614.371125 614.371125 0 0 0 69.166952 67.628949a275.443054 275.443054 0 0 0 44.02993-51.197593 50.173642 50.173642 0 0 1 35.838316-16.38323h727.00583a43.005979 43.005979 0 0 1 35.838316 16.38323c16.38323 20.479037 31.742508 35.838316 44.029931 52.221545a614.371125 614.371125 0 0 0 52.221545 48.125738 43.005979 43.005979 0 0 1 16.38323 35.838316 1202.1195 1202.1195 0 0 1-155.640685 491.4969zM261.669904 523.287533H512.538113l-67.580824 260.083777L819.723675 371.742656H614.933301l107.514946-204.790375H410.142926z m0 0" fill="#F15A24" p-id="3652"></path></svg>
