<svg class="icon" style="width: 1em; height: 1em;vertical-align: middle;fill: currentColor;overflow: hidden;"
     viewBox="0 0 1024 1024" version="1.1" xmlns="http://www.w3.org/2000/svg" p-id="5995">
  <path
    d="M592.768 942.08v-255.68H432.064v256.384c-5.056 0.256-9.024 0.64-13.056 0.64H191.36c-26.112 0-43.648-16.768-43.712-44.48-0.576-105.152-0.384-210.432 0.064-315.648 0-5.568 4.224-12.672 8.512-16.448 68.672-60.672 137.728-120.96 206.656-181.312l137.6-120.448 11.712-9.984L593.92 326.656c89.792 78.592 179.456 157.312 269.44 235.584a35.84 35.84 0 0 1 13.76 30.464c-0.576 99.84-0.448 199.808-0.192 299.584 0 18.176-4.224 33.92-19.328 43.968a36.608 36.608 0 0 1-18.688 6.848c-80.512 0.448-161.088 0.192-241.6 0.192-1.152 0-2.368-0.576-4.608-1.28z m120.96-707.84V114.048c0.064-24.896 5.632-30.784 29.056-30.848h108.8c18.752 0.064 25.216 7.04 25.28 28.16 0.064 83.264 0.256 166.656-0.256 249.92a33.92 33.92 0 0 0 12.8 29.312c39.808 33.92 78.784 68.928 118.016 103.616 19.2 17.024 19.712 25.344 3.52 45.568-9.792 12.288-19.392 24.832-29.312 37.12-12.16 15.168-22.144 16.064-36.672 3.2L527.296 209.92c-4.8-4.288-9.728-8.448-15.36-13.376L418.56 279.168 79.616 579.712c-15.36 13.568-24.832 12.8-37.76-3.2A4194.048 4194.048 0 0 1 10.24 536.32c-12.288-15.68-11.776-25.728 3.008-38.976 63.04-56 126.272-111.872 189.44-167.744C286.848 255.04 371.2 180.608 455.232 105.92c38.208-33.856 75.392-33.856 113.664 0.256 45.248 40.32 90.624 80.448 135.936 120.64 2.112 1.92 4.416 3.648 8.96 7.36z"
    p-id="5996"></path>
</svg>
