<svg class="icon" style="width: 1.3994140625em; height: 1em;vertical-align: middle;fill: currentColor;overflow: hidden;" viewBox="0 0 1433 1024" version="1.1" xmlns="http://www.w3.org/2000/svg" p-id="1127"><path d="M1379.699271 0.081912H53.754517A51.194778 51.194778 0 0 0 0 45.542875V972.782696a52.321063 52.321063 0 0 0 53.754517 51.194778h179.181724a95.734235 95.734235 0 0 1 191.161301 0h197.099896a95.631846 95.631846 0 0 1 191.161301 0h197.099896a95.631846 95.631846 0 0 1 191.161302 0h179.181723A52.321063 52.321063 0 0 0 1433.453788 972.782696V45.542875A51.706726 51.706726 0 0 0 1379.699271 0.081912zM179.181723 739.539287A246.554051 246.554051 0 0 1 430.036136 500.664452a136.690058 136.690058 0 1 1 143.345379-136.587668 142.014315 142.014315 0 0 1-143.345379 136.587668 246.554051 246.554051 0 0 1 250.854413 238.874835h-501.708826zM1228.674675 716.808806H819.11645V614.419249h409.558225v102.389557z m0-204.779113H819.11645V409.640137h409.558225v102.389556z m0-204.779113H819.11645V204.861024h409.558225v102.389556z" fill="#1296db" p-id="1128"></path></svg>
