<svg class="icon" style="width: 1em; height: 1em;vertical-align: middle;fill: currentColor;overflow: hidden;" viewBox="0 0 1024 1024" version="1.1" xmlns="http://www.w3.org/2000/svg" p-id="7245"><path d="M946.688 447.488c-19.968-14.336-46.08-17.408-68.608-8.704l-8.192 3.072V166.4c0.512-44.032-34.816-80.896-78.848-81.408H238.592h-0.512c-44.032 1.024-79.36 37.888-78.336 81.408V430.08l-7.68-3.584C128.512 417.28 102.4 420.352 81.92 435.2c-18.944 13.824-30.208 36.352-30.208 59.904v363.008c0 19.456 7.68 37.888 21.504 52.224s32.256 21.504 51.712 21.504h779.264c19.456 0 37.888-7.68 51.712-21.504 13.824-13.824 21.504-32.256 21.504-51.712V507.392c0-23.552-11.264-46.08-30.72-59.904z m-732.16-281.6c0-13.824 10.752-25.6 24.576-26.112h550.912c13.824 0.512 25.088 11.776 24.576 26.112v297.472l-300.032 116.736-300.032-126.976V165.888z m708.096 692.224c0 5.12-2.048 9.728-5.632 13.312-3.584 3.584-8.192 5.632-12.8 5.632H124.928c-5.12 0-9.728-2.048-13.312-5.632-3.584-3.584-5.632-8.192-5.632-13.312v-363.52c0-6.144 2.56-11.776 7.68-14.848 3.072-2.048 6.656-3.584 10.24-3.584 2.048 0 4.096 0.512 6.144 1.024l373.76 157.696c6.656 2.56 13.824 3.072 20.48 0.512l373.76-145.408c5.632-2.048 11.776-1.536 16.384 2.048 5.12 3.584 8.192 9.216 8.192 15.36v350.72z" fill="currentColor" p-id="7246"></path><path d="M540.672 475.136l92.16-90.112c2.048-1.024 3.584-2.56 5.12-4.608 22.528-24.064 31.232-57.344 24.576-88.576-7.168-35.328-34.816-64-70.144-72.704-27.136-6.656-54.784-0.512-76.8 15.36-21.504-15.872-49.664-22.016-76.8-15.36-34.816 8.704-62.464 37.376-69.632 72.192-6.144 31.232 2.048 64 23.552 87.552l0.512 0.512c1.024 1.536 2.048 2.56 3.584 4.096l93.184 91.136 0.512 0.512c7.168 7.168 16.384 10.752 25.6 10.752s17.92-3.584 24.576-10.752zM436.736 346.624c-1.024-1.024-1.536-2.048-2.56-3.072-10.24-10.752-13.824-25.6-10.752-39.936v-0.512c3.072-14.848 14.848-27.136 29.184-30.72 15.872-4.096 31.744 2.56 40.96 16.384a27.74528 27.74528 0 0 0 46.08 0c8.704-13.312 25.088-19.968 40.448-16.384 14.848 3.584 26.112 15.872 29.696 31.232 3.072 12.8 0 26.112-8.192 36.864l-1.536 1.536c-1.536 1.024-2.56 2.56-4.096 3.584l-79.872 78.336-79.36-77.312z" fill="currentColor" p-id="7247"></path></svg>
