<svg class="icon" style="width: 1.1298828125em; height: 1em;vertical-align: middle;fill: currentColor;overflow: hidden;" viewBox="0 0 1157 1024" version="1.1" xmlns="http://www.w3.org/2000/svg" p-id="2073"><path d="M116.705303 1023.157797a116.103729 116.103729 0 0 1-116.825618-115.62247V434.457748a75.437345 75.437345 0 0 1 39.944496-66.774683 77.362381 77.362381 0 0 1 78.084269 3.007868l391.504181 252.660965a127.413315 127.413315 0 0 0 136.797866 0l391.504181-252.660965a77.482696 77.482696 0 0 1 78.084269-3.007868 75.437345 75.437345 0 0 1 39.944496 66.774683v473.077579a115.983414 115.983414 0 0 1-116.224044 115.62247z m392.707328-453.34596l-298.380568-189.856668a100.703442 100.703442 0 0 1-45.358659-84.220322V106.359438a106.719179 106.719179 0 0 1 107.080123-106.47855h609.995759a106.719179 106.719179 0 0 1 107.080123 106.47855v189.375409a100.703442 100.703442 0 0 1-45.358659 84.220322L646.090182 569.811837a126.450797 126.450797 0 0 1-68.338775 19.972247 126.330483 126.330483 0 0 1-68.218461-19.972247z m-53.901005-236.418475a26.950503 26.950503 0 0 0 27.191132 27.070818h67.737202v66.774684a27.191132 27.191132 0 0 0 27.191132 27.311447 27.191132 27.191132 0 0 0 27.191132-27.311447v-66.774684h67.737202a26.950503 26.950503 0 0 0 27.191132-27.070818 27.070818 27.070818 0 0 0-27.191132-26.830188h-67.737202v-67.255943a26.589559 26.589559 0 0 0-27.191132-26.589558 26.589559 26.589559 0 0 0-27.191132 26.589558v67.255943h-67.737202a27.070818 27.070818 0 0 0-27.070818 26.830188z" p-id="2074"></path></svg>
