<svg class="icon" style="width: 1.845703125em; height: 1em;vertical-align: middle;fill: currentColor;overflow: hidden;" viewBox="0 0 1890 1024" version="1.1" xmlns="http://www.w3.org/2000/svg" p-id="3110"><path d="M1890.439726 1024h-269.781503v-162.735353A290.812644 290.812644 0 0 0 1496.598116 630.15839c181.718519 28.671669 393.84161 106.494771 393.84161 231.106257V1024zM393.84161 787.695034H236.304966V551.390069H0V393.853425h236.304966V157.548459h157.536644v236.304966h236.304965v157.536644H393.84161v236.304965z m1018.710707-315.073287A242.921505 242.921505 0 0 1 1339.061472 461.594182 391.714865 391.714865 0 0 0 1411.843402 236.316781 382.971581 382.971581 0 0 0 1339.061472 11.03938a245.520859 245.520859 0 0 1 73.490845-11.027565A239.219394 239.219394 0 0 1 1654.13476 236.316781a239.219394 239.219394 0 0 1-241.582443 236.304966z m-388.170291 0a236.304966 236.304966 0 1 1 236.304966-236.304966 236.777576 236.777576 0 0 1-236.304966 236.304966z" fill="#88B0F3" p-id="3111"></path><path d="M1023.988185 630.15839c-157.536644 0-472.609931 78.768322-472.609932 236.304966v157.536644h945.219863v-157.536644c0-157.536644-315.073288-236.304966-472.609931-236.304966z" fill="#88B0F3" p-id="3112"></path></svg>
