<svg class="icon" style="width: 1.001953125em; height: 1em;vertical-align: middle;fill: currentColor;overflow: hidden;" viewBox="0 0 1026 1024" version="1.1" xmlns="http://www.w3.org/2000/svg" p-id="3893"><path d="M498.514016 953.380637c28.657133-34.797947 39.915292-66.525487 32.751009-97.229557-7.164283-27.633664-20.46938-42.985699-62.431611-79.830584-7.164283-6.140814-10.23469-9.211221-15.352035-13.305097-32.751009-29.680602-50.149982-52.19692-57.314265-79.830584-8.187752-28.657133-4.093876-61.408141 14.328566-100.299964 12.281628-27.633664-17.398973-54.243858-42.985699-38.891823C287.679397 590.049134 237.529415 645.316461 218.083504 708.771541c-16.375504 53.220389-9.211221 107.464248 14.328566 162.731574 13.305097 32.751009 28.657133 57.314265 50.149982 86.994867-46.056106-12.281628-84.947929-30.704071-116.675469-54.243858-32.751009-23.539788-57.314265-52.19692-74.713238-84.947929-45.032637-85.971398-34.797947-196.506053 13.305097-286.571327 5.117345-9.211221 22.516319-36.844885 29.680602-46.056106 3.070407-4.093876 6.140814-7.164283 16.375504-19.445911 70.619363-81.877522 106.440779-139.191787 104.39384-203.670336 3.070407 5.117345 6.140814 10.23469 9.211222 17.398973 13.305097 27.633664 22.516319 59.361203 24.563256 94.159151 2.046938 29.680602 39.915292 39.915292 56.290797 15.352035 64.478549-99.276495 94.15915-236.421345 80.854052-322.392743L441.199751 79.338091c77.783646 57.314265 151.473416 148.403009 204.693805 253.820318 25.586726 52.19692 34.797947 83.92446 47.079575 135.097911 3.070407 13.305097 64.478549 5.117345 59.361203-14.328567-13.305097-56.290796-24.563257-92.112212-52.19692-148.403008-63.45508-127.933628-155.567292-235.397876-253.820318-296.806017-17.398973-11.258159-39.915292-11.258159-58.337734-2.046938-19.445911 10.23469-30.704071 38.891823-25.586726 60.384672 11.258159 50.149982 0 136.12138-31.72754 214.928495-11.258159-31.72754-26.610195-57.314265-42.985699-75.736707-15.352035-18.422442-41.96223-24.563257-64.478548-15.352036-23.539788 9.211221-37.868354 33.774478-33.774478 58.337735 9.211221 49.126513-20.46938 100.299964-86.994867 178.08361-11.258159 13.305097-14.328566 16.375504-18.422443 22.516318-9.211221 12.281628-28.657133 41.96223-34.797946 54.243859C-7.079682 610.518514-19.36131 741.522549 34.882548 846.939859c21.49285 41.96223 53.220389 77.783646 93.135681 106.440778 42.985699 30.704071 95.182619 54.243858 156.590761 68.572425 4.093876 1.023469 9.211221 2.046938 13.305097 2.046938h2.046938c28.657133-1.023469 53.220389-23.539788 53.22039-52.19692 0-11.258159-4.093876-21.49285-10.23469-30.704071-1.023469-2.046938-3.070407-4.093876-7.164284-10.23469-55.267327-73.68977-81.877522-137.144849-61.408141-204.693805 8.187752-28.657133 26.610195-56.290796 55.267327-81.877522-1.023469 19.445911 1.023469 37.868354 6.140814 55.267327 11.258159 40.938761 34.797947 71.642832 75.736708 108.487717 4.093876 4.093876 8.187752 7.164283 15.352035 14.328566 31.72754 27.633664 41.96223 38.891823 44.009169 49.126513 3.070407 11.258159-8.187752 32.751009-38.891823 63.45508-18.422442 18.422442-24.563257 50.149982 0 58.337734 35.821416 12.281628 52.19692-20.46938 66.525486-39.915292z" fill="rgb(64, 158, 255)" p-id="3894"></path><path d="M572.203786 765.062337c-8.187752 0-15.352035-2.046938-18.422442-6.140814-4.093876-4.093876-6.140814-10.23469-6.140815-19.445912 0-10.23469 2.046938-18.422442 6.140815-22.516318 4.093876-4.093876 10.23469-6.140814 19.445911-6.140814h36.844885v-1.023469-1.023469c-1.023469-10.23469-6.140814-24.563257-15.352036-44.009169-5.117345-10.23469-5.117345-18.422442-1.023469-24.563256h-6.140814c-8.187752 0-15.352035-2.046938-19.445911-6.140814-4.093876-4.093876-6.140814-11.258159-6.140814-22.516319 0-9.211221 2.046938-16.375504 6.140814-20.46938 4.093876-4.093876 10.23469-6.140814 19.445911-6.140814h73.68977c-5.117345-10.23469-6.140814-19.445911-4.093876-25.586726 3.070407-6.140814 7.164283-10.23469 12.281628-13.305097 18.422442-7.164283 30.704071-3.070407 37.868354 14.328566 2.046938 3.070407 3.070407 7.164283 5.117345 11.258159 2.046938 4.093876 3.070407 8.187752 5.117345 13.305098h54.243859c8.187752 0 15.352035 2.046938 21.492849 6.140814 5.117345 4.093876 8.187752 11.258159 8.187752 20.46938 0 8.187752-2.046938 14.328566-6.140814 18.422443-4.093876 4.093876-9.211221 7.164283-16.375504 8.187752 3.070407 5.117345 3.070407 12.281628 1.023469 21.492849-2.046938 9.211221-5.117345 18.422442-7.164283 25.586726-2.046938 7.164283-5.117345 15.352035-9.211222 23.539788H789.179219c16.375504 0 24.563257 9.211221 24.563257 27.633663 0 17.398973-8.187752 26.610195-24.563257 26.610195h-79.830584v30.704071h62.431611c8.187752 0 15.352035 2.046938 20.46938 6.140814 5.117345 4.093876 8.187752 11.258159 8.187752 20.46938 0 9.211221-3.070407 16.375504-8.187752 20.469381-5.117345 4.093876-12.281628 6.140814-20.46938 6.140814h-62.431611v129.980566c0 13.305097-3.070407 23.539788-8.187752 30.704071-5.117345 8.187752-15.352035 12.281628-29.680602 13.305097-18.422442 1.023469-34.797947-1.023469-47.079575-5.117345-10.23469-4.093876-17.398973-8.187752-19.445911-14.328567-2.046938-5.117345-2.046938-13.305097 1.023469-22.516318 5.117345-15.352035 16.375504-19.445911 33.774478-13.305097 8.187752 3.070407 13.305097 4.093876 15.352035 2.046938 2.046938-1.023469 3.070407-6.140814 3.070407-13.305098V848.986797h-69.595894c-8.187752 0-15.352035-2.046938-20.46938-5.117345-5.117345-4.093876-8.187752-10.23469-8.187752-19.445912 0-10.23469 2.046938-17.398973 8.187752-21.492849 5.117345-4.093876 12.281628-6.140814 20.46938-6.140814h69.595894v-30.704071h-85.971398z m59.361203 95.182619c15.352035 6.140814 19.445911 20.46938 10.234691 39.915292-3.070407 7.164283-6.140814 14.328566-9.211222 19.445912-3.070407 5.117345-6.140814 11.258159-8.187752 15.352035-3.070407 5.117345-6.140814 9.211221-9.211221 14.328566-3.070407 5.117345-7.164283 10.23469-10.23469 15.352036-8.187752 11.258159-15.352035 17.398973-21.49285 19.445911-6.140814 2.046938-13.305097 0-20.46938-6.140814-4.093876-3.070407-6.140814-6.140814-8.187752-8.187752-2.046938-3.070407-3.070407-5.117345-3.070408-8.187752 0-3.070407 0-7.164283 2.046939-10.234691 2.046938-4.093876 4.093876-9.211221 8.187752-14.328566 7.164283-11.258159 13.305097-21.49285 18.422442-29.680602 5.117345-9.211221 9.211221-17.398973 13.305097-25.586725 5.117345-12.281628 11.258159-19.445911 17.398974-22.516319 4.093876-3.070407 11.258159-3.070407 20.46938 1.023469z m25.586726-164.778513c1.023469 4.093876 1.023469 7.164283 1.023469 9.211221 0 2.046938 1.023469 5.117345 1.023469 7.164284h52.19692c0-3.070407 1.023469-5.117345 2.046938-8.187753 1.023469-3.070407 2.046938-5.117345 4.093876-9.211221 5.117345-11.258159 10.23469-26.610195 15.352036-46.056106 1.023469-3.070407 2.046938-5.117345 3.070407-8.187752h-97.229557c1.023469 2.046938 1.023469 3.070407 2.046938 5.117345l3.070407 6.140814c3.070407 8.187752 6.140814 15.352035 8.187752 21.49285 1.023469 8.187752 3.070407 15.352035 5.117345 22.516318z m112.581593 275.313168c-8.187752 3.070407-15.352035 2.046938-19.445912 0-4.093876-3.070407-8.187752-11.258159-11.258159-23.539788-3.070407-9.211221-5.117345-17.398973-8.187752-23.539787-2.046938-7.164283-6.140814-14.328566-9.211222-23.539788-5.117345-11.258159-7.164283-19.445911-5.117345-24.563257 1.023469-5.117345 6.140814-11.258159 15.352036-16.375504 5.117345-4.093876 11.258159-4.093876 17.398973-2.046938 6.140814 2.046938 11.258159 8.187752 16.375505 17.398973 5.117345 10.23469 9.211221 20.46938 13.305097 29.680602 4.093876 9.211221 7.164283 18.422442 9.211221 27.633664 3.070407 10.23469 3.070407 18.422442 1.023469 24.563256-3.070407 6.140814-9.211221 11.258159-19.445911 14.328567z m105.417309-257.914194h122.816283c10.23469 0 17.398973 2.046938 21.49285 6.140814 4.093876 4.093876 6.140814 11.258159 6.140814 21.492849s-2.046938 17.398973-6.140814 21.49285c-4.093876 4.093876-11.258159 6.140814-21.49285 6.140814H973.403643v227.210123c0 10.23469-2.046938 17.398973-7.164283 21.49285-5.117345 4.093876-12.281628 6.140814-20.46938 6.140814-10.23469 0-17.398973-2.046938-21.49285-6.140814-4.093876-4.093876-6.140814-11.258159-6.140814-21.49285V769.156213h-42.985699c0 32.751009-1.023469 61.408141-3.070407 83.92446-1.023469 22.516319-4.093876 41.96223-7.164283 59.361203-3.070407 16.375504-7.164283 30.704071-11.258159 44.009168-5.117345 13.305097-10.23469 25.586726-17.398974 38.891823-10.23469 21.49285-24.563257 27.633664-42.985699 18.422443-8.187752-5.117345-13.305097-10.23469-14.328566-17.398974-1.023469-7.164283 1.023469-16.375504 6.140814-27.633663 6.140814-12.281628 11.258159-24.563257 15.352035-36.844885 4.093876-12.281628 7.164283-26.610195 10.234691-41.96223 2.046938-15.352035 4.093876-33.774478 5.117345-54.243858 1.023469-20.46938 2.046938-45.032637 2.046938-73.68977V648.386868c0-10.23469 1.023469-18.422442 2.046938-24.563256 1.023469-6.140814 4.093876-12.281628 7.164283-16.375505 4.093876-4.093876 9.211221-7.164283 16.375504-9.211221 7.164283-2.046938 16.375504-4.093876 27.633664-6.140814 8.187752-1.023469 16.375504-3.070407 25.586726-5.117345 9.211221-2.046938 18.422442-4.093876 26.610194-6.140815 9.211221-2.046938 17.398973-5.117345 24.563257-7.164283 8.187752-2.046938 14.328566-5.117345 19.445911-7.164283 10.23469-5.117345 19.445911-6.140814 27.633664-4.093876 8.187752 2.046938 14.328566 8.187752 17.398973 18.422442 4.093876 10.23469 3.070407 18.422442 0 24.563257-4.093876 6.140814-12.281628 12.281628-23.539787 16.375504-8.187752 3.070407-16.375504 6.140814-24.563257 8.187753-8.187752 2.046938-15.352035 5.117345-23.539787 7.164283-7.164283 2.046938-15.352035 4.093876-23.539788 5.117345-8.187752 2.046938-17.398973 3.070407-26.610195 5.117345-7.164283 1.023469-12.281628 3.070407-14.328566 5.117345-2.046938 2.046938-3.070407 7.164283-3.070407 13.305098v47.079575z" fill="rgb(64, 158, 255)" p-id="3895"></path></svg>
