<svg class="icon" style="width: 1.060546875em; height: 1em;vertical-align: middle;fill: currentColor;overflow: hidden;" viewBox="0 0 1086 1024" version="1.1" xmlns="http://www.w3.org/2000/svg" p-id="10334"><path d="M1068.645564 286.302041L553.197401 2.716735a19.184327 19.184327 0 0 0-19.685878 0L18.06336 286.302041a49.089306 49.089306 0 0 0 0 76.068571l515.448163 283.585306a19.184327 19.184327 0 0 0 19.685878 0l400.760163-220.473469v225.48898a112.84898 112.84898 0 0 0 0 166.138775v78.576327h52.767347V817.110204a112.84898 112.84898 0 0 0 0-166.138775V396.434286l61.920653-34.063674a49.089306 49.089306 0 0 0 0-76.068571zM543.354462 702.798367a48.441469 48.441469 0 0 1-22.987755-6.060408L199.060584 519.941224v244.088164C199.060584 964.022857 433.389401 1024 506.657646 1024h73.456326c54.878041 0 307.617959-59.977143 307.617959-259.970612V519.941224l-321.347918 176.796735a48.065306 48.065306 0 0 1-22.987755 6.060408z" p-id="10335"></path></svg>
