<svg class="icon" style="width: 1em; height: 1em;vertical-align: middle;fill: currentColor;overflow: hidden;" viewBox="0 0 1024 1024" version="1.1" xmlns="http://www.w3.org/2000/svg" p-id="4442"><path d="M851.274333 579.855422a687.807229 687.807229 0 0 0 92.53012-246.746988 544.693976 544.693976 0 0 0-30.843373-172.722892 536.674699 536.674699 0 0 0-215.903615 92.530121C666.214092 160.385542 569.982766 18.506024 508.296019 0c-61.686747 18.506024-138.795181 161.619277-169.638554 254.149398C276.970718 192.462651 111.033369 160.385542 111.033369 160.385542a493.493976 493.493976 0 0 0-29.609639 172.722892A648.327711 648.327711 0 0 0 172.720116 579.855422a478.689157 478.689157 0 0 0 308.433735 198.631325v214.66988a30.843373 30.843373 0 0 0 61.686747 0v-215.286747a484.240964 484.240964 0 0 0 308.433735-198.014458zM950.589995 839.556627a403.431325 403.431325 0 0 0-341.744578 138.178313 30.843373 30.843373 0 0 0 53.050602 30.843373 354.081928 354.081928 0 0 1 275.122892-108.568674 30.843373 30.843373 0 0 0 13.571084-61.686747zM73.404453 839.556627a30.843373 30.843373 0 1 0 13.571084 61.686746 352.848193 352.848193 0 0 1 275.122892 108.568675 30.843373 30.843373 0 0 0 53.050602-30.843373 404.048193 404.048193 0 0 0-341.744578-139.412048z" fill="rgb(94, 239, 240)" p-id="4443"></path></svg>
