<?xml version="1.0" standalone="no"?><!DOCTYPE svg PUBLIC "-//W3C//DTD SVG 1.1//EN" "http://www.w3.org/Graphics/SVG/1.1/DTD/svg11.dtd"><svg t="1595310713693" class="icon" viewBox="0 0 1056 1024" version="1.1" xmlns="http://www.w3.org/2000/svg" p-id="2974" width="41.25" height="40" xmlns:xlink="http://www.w3.org/1999/xlink"><defs><style type="text/css"></style></defs><path d="M122.27102686 576.5014801h75.26829281a10.27100625 10.27100625 0 0 1 10.27100625 10.29066374v11.39147906a10.27100625 10.27100625 0 0 1-10.27100625 10.23169219H122.27102686A10.27100625 10.27100625 0 0 1 112.00002155 598.14430885v-11.35216501a10.27100625 10.27100625 0 0 1 10.27100531-10.29066374z m0-319.04005876h75.26829281a10.27100625 10.27100625 0 0 1 10.27100625 10.27100626v11.4209653a10.27100625 10.27100625 0 0 1-10.27100625 10.27100626H122.27102686A10.27100625 10.27100625 0 0 1 112.00002155 279.1533929V267.7324276a10.27100625 10.27100625 0 0 1 10.27100531-10.27100626z m0 159.56917313h75.26829281a10.27100625 10.27100625 0 0 1 10.27100625 10.27100626v11.39147905a10.27100625 10.27100625 0 0 1-10.27100625 10.27100626H122.27102686A10.27100625 10.27100625 0 0 1 112.00002155 438.69307978v-11.38165031a10.27100625 10.27100625 0 0 1 10.27100531-10.27100625z m0 318.92211376h75.26829281a10.27100625 10.27100625 0 0 1 10.27100625 10.27100624v11.39148a10.27100625 10.27100625 0 0 1-10.27100625 10.27100625H122.27102686A10.27100625 10.27100625 0 0 1 112.00002155 757.61519447v-11.38165124a10.27100625 10.27100625 0 0 1 10.27100531-10.27100626z m-10.27100531 0" p-id="2975" fill="#dbdbdb"></path><path d="M876.12356874 159.68537353H819.96229655a8.02023094 8.02023094 0 0 1-7.99074469-7.10615999A63.82766906 63.82766906 0 0 0 748.59600342 95.91667604H214.16950374a71.81841375 71.81841375 0 0 0-71.8479 71.82824249v47.64960657a8.04971719 8.04971719 0 0 0 8.04971719 8.04971624h47.65943437a39.9930375 39.9930375 0 0 1 40.02252375 39.98320875v23.88377531a32.00229281 32.00229281 0 0 1-31.93349156 31.93349251H150.41063593a8.04971719 8.04971719 0 0 0-8.08903219 8.06937374v47.65943532a8.04971719 8.04971719 0 0 0 8.04971718 8.04971626h47.65943438a39.9930375 39.9930375 0 0 1 39.9930375 39.99303749v15.83405906a39.9930375 39.9930375 0 0 1-39.9930375 39.99303751H150.41063593a8.04971719 8.04971719 0 0 0-8.04971719 8.04971624v47.64960656a8.04971719 8.04971719 0 0 0 8.04971718 8.04971626h47.65943438a39.9930375 39.9930375 0 0 1 39.9930375 39.99303749v23.86411781a32.00229281 32.00229281 0 0 1-31.93349156 31.94332125H150.41063593a8.04971719 8.04971719 0 0 0-8.04971719 8.04971626v47.76755063a8.04971719 8.04971719 0 0 0 8.04971718 8.04971718h47.65943438a39.9930375 39.9930375 0 0 1 39.9930375 39.9930375v23.66754376a32.00229281 32.00229281 0 0 1-31.93349156 31.93349155H150.41063593a8.04971719 8.04971719 0 0 0-8.08903219 8.1185175v111.59521969a71.81841375 71.81841375 0 0 0 71.81841375 71.81841375h653.93383406a71.81841375 71.81841375 0 0 0 71.81841375-71.81841375V223.4540701a63.81784031 63.81784031 0 0 0-63.76869656-63.75886782z m-277.37614031 79.39635187c7.86297094-13.28842125 31.04890781-19.21513594 44.66167687-11.72565562l76.16270531 42.65661937c13.62259781 7.70571188 19.88348812 30.15449437 12.05983219 43.44291563L490.96574968 720.08916384a8.04971719 8.04971719 0 0 1-10.86072844 2.9486147l-118.82915344-66.5010797a8.04971719 8.04971719 0 0 1-2.94861469-11.12610469zM454.19653093 760.50483665l-96.62608876 35.9042925a8.04971719 8.04971719 0 0 1-10.81158562-6.88010062l-7.86297094-94.277025a8.04971719 8.04971719 0 0 1 11.95171594-7.69588313l104.45957344 58.3727325a8.04971719 8.04971719 0 0 1-1.11064407 14.57598375z m421.92703781 132.94318595c0 35.17696781-1.9657425 63.75886781-63.75886875 63.75886875H238.05327905a63.88664156 63.88664156 0 0 1-63.09051563-54.48056251 8.07920344 8.07920344 0 0 1 7.97108719-9.27830624h557.50432031a71.81841375 71.81841375 0 0 0 71.81841375-71.81841375V199.81601259a8.06937469 8.06937469 0 0 1 8.1578325-8.059545c31.33394063 0.32434781 55.60103531 4.67846813 55.60103532 63.73921031v637.9523447z m0 0" p-id="2976" fill="#dbdbdb"></path></svg>