<svg class="icon" style="width: 1em; height: 1em;vertical-align: middle;fill: currentColor;overflow: hidden;" viewBox="0 0 1024 1024" version="1.1" xmlns="http://www.w3.org/2000/svg" p-id="5303"><path d="M672.631467 791.893333l69.495466 125.201067 147.592534-377.924267-377.6512 147.456 117.418666 64.7168a33.9968 33.9968 0 0 1 9.079467-16.247466l96.529067-96.529067a34.133333 34.133333 0 1 1 48.264533 48.264533l-96.529067 96.529067a33.9968 33.9968 0 0 1-14.199466 8.533333z m31.744 197.905067l-95.300267-171.758933-169.710933-93.525334a46.967467 46.967467 0 0 1 5.5296-84.923733l465.237333-181.6576a46.967467 46.967467 0 0 1 60.8256 60.8256l-181.725867 465.3056a46.967467 46.967467 0 0 1-84.855466 5.7344z" fill="#538EE0" p-id="5304"></path><path d="M681.847467 288.017067c0-19.2512-13.994667-32.017067-34.952534-32.017067h-419.157333c-21.026133 0-34.952533 12.834133-34.952533 32.017067 0 19.182933 13.9264 31.9488 34.884266 31.9488h419.2256c20.957867 0 34.952533-12.765867 34.952534-31.9488zM227.669333 448.034133c-20.957867 0-34.884267 12.765867-34.884266 31.9488 0 19.2512 13.9264 32.017067 34.884266 32.017067h209.578667c21.026133 0 35.0208-12.834133 35.0208-32.017067 0-19.182933-13.994667-31.9488-34.952533-31.9488h-209.578667z" fill="#538EE0" p-id="5305"></path><path d="M451.7888 896H138.990933c-41.642667 0-69.495467-25.6-69.495466-64.034133V128.068267c0-38.434133 27.784533-64.034133 69.495466-64.034134H764.586667c41.710933 0 69.495467 25.6 69.495466 64.034134v160.017066c0 19.182933 13.9264 31.9488 34.816 31.9488 20.821333 0 34.679467-12.765867 34.679467-31.9488V128C903.509333 57.617067 841.045333 0 764.586667 0H138.990933C62.532267 0 0 57.617067 0 128v704.034133c0 70.314667 62.532267 127.931733 138.990933 127.931734H451.7888c20.821333 0 34.747733-12.765867 34.747733-31.9488s-13.9264-32.017067-34.816-32.017067z" fill="#538EE0" p-id="5306"></path></svg>
