<svg class="icon" style="width: 1em; height: 1em;vertical-align: middle;fill: currentColor;overflow: hidden;" viewBox="0 0 1024 1024" version="1.1" xmlns="http://www.w3.org/2000/svg" p-id="2927"><path d="M512 0C229.2224 0 0 229.2224 0 512s229.2224 512 512 512 512-229.2224 512-512S794.7776 0 512 0z" fill="#55B737" p-id="2928"></path><path d="M691.456 554.2912s-71.0144 5.7344-54.528-54.1696c-2.3552-17.6128 86.528-58.4192 74.752-114.7904-18.8416-66.9184-128.2048-86.4768-156.5696-2.3552v266.0864c1.1776 37.376-72.8576 160.0512-225.9968 108.3392 0 0-102.2976-43.6224-96.6144-153.4976 4.5056-49.8176 51.6096-110.7968 104.4992-130.8672 58.8288-16.384 80.384 41.8816 54.528 67.7376-18.7904 9.3696-134.656 57.7024-54.528 135.3728 43.52 43.4688 116.4288 15.9744 134.0416-25.9072 2.3552-29.3376 2.304-242.5856 2.304-271.9744 0-29.3376 87.296-186.2144 246.5792-97.1264 0 0 179.2 104.4992-28.4672 273.152z" fill="#FFFFFF" p-id="2929"></path></svg>
