<svg class="icon" style="width: 1em; height: 1em;vertical-align: middle;fill: currentColor;overflow: hidden;" viewBox="0 0 1024 1024" version="1.1" xmlns="http://www.w3.org/2000/svg" p-id="5936"><path d="M554.25 577.96l-6.97 5.23c2.77-1.06 5.18-2.87 6.97-5.23zM296.61 254.76h363.07c15.4-0.2 27.84-12.64 28.04-28.05V140.3c0.51-14.98-11.22-27.53-26.19-28.05-0.62-0.02-1.23-0.02-1.85 0H642.4c-15.4-0.2-27.84-12.64-28.04-28.05 0.29-29.51-23.39-53.67-52.9-53.97H400.3c-29.51-0.29-53.67 23.39-53.97 52.9v1.07c0.51 14.98-11.22 27.53-26.19 28.05-0.62 0.02-1.23 0.02-1.85 0h-19.41c-15.4 0.2-27.84 12.64-28.04 28.05v86.48c-2.09 13.23 6.94 25.65 20.18 27.74 1.85 0.3 3.73 0.38 5.59 0.24zM480.19 81.79c32.32 0.06 58.46 26.31 58.4 58.63 0 0.67-0.01 1.34-0.04 2.01 1.85 31.59-22.26 58.7-53.86 60.55-1.5 0.09-3 0.12-4.51 0.09-33.49-0.05-60.6-27.23-60.55-60.72 0.06-33.43 27.14-60.51 60.56-60.56z m229.59 484.57c-122.61 0-222.01 99.4-222.01 222.01s99.4 222.01 222.01 222.01c122.61 0 222.01-99.4 222.01-222.01-0.04-122.59-99.41-221.96-222.01-222.01z m143.11 126.21c0.11 1.56 0.11 3.13 0 4.7v1.21c-0.1 0.77-0.25 1.53-0.46 2.27v1.06c0 0.3-0.53 2.2-0.91 3.26v1.06c-0.81 2.62-1.88 5.16-3.18 7.58l-0.53 0.99a46.475 46.475 0 0 1-17.05 17.05l-0.99 0.53a53.51 53.51 0 0 1-7.58 3.18h-1.06l-3.26 0.91h-1.06l-2.27 0.45h-1.21c-1.56 0.11-3.14 0.11-4.7 0h-2.43c-1.57 0.11-3.13 0.11-4.7 0h-1.21l-2.27-0.45h-1.06l-3.26-0.91h-1.06c-2.62-0.81-5.16-1.88-7.58-3.18l-0.99-0.53c-3.2-1.85-6.18-4.06-8.87-6.59-0.53-0.48-1.04-0.98-1.52-1.52a47.16 47.16 0 0 1-6.59-8.87v-0.53l-125.14 72.24v1.06c0 0.3 0 1.52 0.46 2.27 0.06 0.4 0.06 0.81 0 1.21 0.11 1.56 0.11 3.13 0 4.7v2.43c0.11 1.56 0.11 3.13 0 4.7v1.21c-0.1 0.77-0.25 1.53-0.46 2.27v1.06c0 0.3-0.53 2.2-0.91 3.26v1.06l124.46 71.86c0.49-1.25 1.08-2.47 1.74-3.64l0.53-0.99a46.475 46.475 0 0 1 17.05-17.05l0.99-0.53a53.51 53.51 0 0 1 7.58-3.18h1.06l3.26-0.91h1.06l2.27-0.45h1.21c1.56-0.11 3.14-0.11 4.7 0h2.43c1.57-0.11 3.13-0.11 4.7 0h1.21l2.27 0.45h1.06l3.26 0.91h1.06c2.62 0.81 5.16 1.88 7.58 3.18l0.99 0.53a46.4 46.4 0 0 1 17.05 17.05l0.53 0.99a53.51 53.51 0 0 1 3.18 7.58v1.06c0 1.06 0.68 2.2 0.91 3.26s0 0.76 0 1.06 0 1.52 0.46 2.27c0.06 0.4 0.06 0.81 0 1.21 0.11 1.54 0.11 3.08 0 4.62v2.43c0.11 1.56 0.11 3.13 0 4.7v1.21c-0.1 0.77-0.25 1.53-0.46 2.27v1.06c0 0.3-0.53 2.2-0.91 3.26v1.06c-0.81 2.62-1.88 5.16-3.18 7.58l-0.53 0.99a46.475 46.475 0 0 1-17.05 17.05l-0.99 0.53a53.51 53.51 0 0 1-7.58 3.18h-1.06l-3.26 0.91h-1.06l-2.27 0.45h-1.21c-1.56 0.11-3.14 0.11-4.7 0h-2.43c-1.57 0.11-3.13 0.11-4.7 0h-1.21l-2.27-0.45h-1.06l-3.26-0.91h-1.06c-2.62-0.82-5.16-1.88-7.58-3.18l-0.99-0.53c-3.2-1.85-6.18-4.06-8.87-6.59-0.53-0.48-1.04-0.98-1.52-1.52a47.16 47.16 0 0 1-6.59-8.87l-0.53-0.99a51.903 51.903 0 0 1-3.18-7.58v-1.06c0-1.06-0.68-2.2-0.91-3.26s0-0.76 0-1.06c0-0.3 0-1.52-0.46-2.27a4.9 4.9 0 0 1 0-1.21 33.51 33.51 0 0 1 0-4.7v-2.35-2.2l-127.79-73.83c-3.74 4.83-8.4 8.88-13.72 11.9l-0.99 0.53a52.368 52.368 0 0 1-7.58 3.18h-1.06l-3.26 0.91h-1.06l-2.27 0.45h-1.21c-1.56 0.11-3.14 0.11-4.7 0h-2.43c-1.57 0.11-3.13 0.11-4.7 0h-1.21l-2.27-0.45h-1.06l-3.26-0.91h-1.06c-2.62-0.81-5.16-1.88-7.58-3.18l-0.99-0.53c-3.2-1.85-6.18-4.06-8.87-6.59-0.53-0.48-1.04-0.98-1.52-1.52a47.16 47.16 0 0 1-6.59-8.87l-0.53-0.99a51.903 51.903 0 0 1-3.18-7.58v-1.06c0-1.06-0.68-2.2-0.91-3.26-0.23-1.06 0-0.76 0-1.06 0-0.3 0-1.52-0.46-2.27a4.9 4.9 0 0 1 0-1.21 33.51 33.51 0 0 1 0-4.7v-2.12a33.51 33.51 0 0 1 0-4.7v-1.21c0.1-0.77 0.25-1.53 0.46-2.27v-1.06c0-0.3 0.53-2.2 0.91-3.26v-1.06c0.81-2.62 1.88-5.16 3.18-7.58l0.53-0.99a46.475 46.475 0 0 1 17.05-17.05l0.99-0.53a53.51 53.51 0 0 1 7.58-3.18h1.06l3.26-0.91h1.06l2.27-0.45h1.21c1.56-0.11 3.14-0.11 4.7 0h2.43c1.57-0.11 3.13-0.11 4.7 0h1.21l2.27 0.45h1.06l3.26 0.91h1.06c2.62 0.81 5.16 1.88 7.58 3.18l0.99 0.53c6.6 3.84 12.16 9.22 16.22 15.69l125.9-72.61v-1.21a4.9 4.9 0 0 1 0-1.21 33.51 33.51 0 0 1 0-4.7v-2.12a33.51 33.51 0 0 1 0-4.7v-1.21c0.1-0.77 0.25-1.53 0.46-2.27v-1.06c0-0.3 0.53-2.2 0.91-3.26v-1.06c0.81-2.62 1.88-5.16 3.18-7.58l0.53-0.99a46.475 46.475 0 0 1 17.05-17.05l0.99-0.53a53.51 53.51 0 0 1 7.58-3.18h1.06l3.26-0.91h1.06l2.27-0.45H803c1.56-0.11 3.14-0.11 4.7 0h2.43c1.57-0.11 3.13-0.11 4.7 0h1.21l2.27 0.45h1.06l3.26 0.91h1.06c2.62 0.81 5.16 1.88 7.58 3.18l0.99 0.53a46.4 46.4 0 0 1 17.05 17.05l0.53 0.99c1.25 2.44 2.32 4.97 3.18 7.58v1.06c0 1.06 0.68 2.2 0.91 3.26s0 0.76 0 1.06c0 0.3 0 1.52 0.46 2.27 0.05 0.4 0.05 0.81 0 1.21 0.11 1.56 0.11 3.13 0 4.7v1.21c-1.52 0.15-1.52 0.53-1.52 0.99v-0.07zM449.42 788.37c-0.03-143.75 116.47-260.32 260.22-260.35 47.87-0.01 94.81 13.18 135.67 38.11V189.95c2.98-32.68-21.11-61.59-53.79-64.57-1.47-0.13-2.95-0.21-4.42-0.24h-17.28c-15.3-1.38-28.83 9.9-30.21 25.2-0.09 0.94-0.12 1.89-0.11 2.84v127.57c0.51 14.98-11.22 27.53-26.2 28.04-0.62 0.02-1.23 0.02-1.85 0l-466.84 4.4c-15.4-0.2-27.84-12.64-28.04-28.04V157.59c0.51-14.98-11.22-27.53-26.2-28.04-0.62-0.02-1.23-0.02-1.85 0H171.1c-45.48-4.4-64.81 25.92-64.81 64.81v704.92c1.34 39.57 31.83 72.01 71.25 75.8h350.49a259.645 259.645 0 0 1-78.61-186.71zM246.89 449.71c0-10.47 8.48-18.95 18.95-18.95h420.22c10.47 0 18.95 8.48 18.95 18.95v0.99c0 10.47-8.48 18.95-18.95 18.95h-420.6c-10.47 0-18.95-8.48-18.95-18.95l0.38-0.99z m0 134.47c-0.04-10.68 8.58-19.36 19.25-19.4h226.71c10.7 0.67 18.82 9.88 18.15 20.58-0.61 9.76-8.39 17.54-18.15 18.15H266.22c-10.63 0.04-19.29-8.54-19.33-19.18v-0.15z" p-id="5937"></path></svg>
