<svg class="icon" style="width: 1em; height: 1em;vertical-align: middle;fill: currentColor;overflow: hidden;" viewBox="0 0 1024 1024" version="1.1" xmlns="http://www.w3.org/2000/svg" p-id="4108"><path d="M701.605 153.406l147.656 147.656-147.656 147.656-147.656-147.656 147.656-147.656M701.605 100.588c-15.863 0-26.325 5.231-36.956 15.863l-147.656 147.656c-21.094 21.094-21.094 52.65 0 73.912l147.656 147.656c10.463 10.463 26.325 15.863 36.956 15.863s26.325-5.231 36.956-15.863l147.656-147.656c21.094-21.094 21.094-52.819 0-73.912l-147.656-147.656c-10.631-10.463-21.094-15.863-36.956-15.863z" fill="#F4BB19" p-id="4109"></path><path d="M385.198 195.594v210.938h-210.938v-210.938h210.938M385.198 142.775h-210.938c-31.725 0-52.65 21.094-52.65 52.65v210.937c0 31.725 21.094 52.65 52.65 52.65h210.938c31.725 0 52.65-21.094 52.65-52.65v-210.937c0.169-31.388-21.094-52.65-52.65-52.65zM385.198 617.469v210.938h-210.938v-210.938h210.938M385.198 564.65h-210.938c-31.725 0-52.65 21.094-52.65 52.65v210.938c0 31.725 21.094 52.65 52.65 52.65h210.938c31.725 0 52.65-21.094 52.65-52.65v-210.938c0.169-31.387-21.094-52.65-52.65-52.65zM807.073 617.469v210.938h-210.938v-210.938h210.938M807.073 564.65h-210.938c-31.725 0-52.65 21.094-52.65 52.65v210.938c0 31.725 21.094 52.65 52.65 52.65h210.938c31.725 0 52.65-21.094 52.65-52.65v-210.938c0.169-31.387-21.094-52.65-52.65-52.65z" fill="#0095E2" p-id="4110"></path></svg>
