<svg class="icon" style="width: 1.2333984375em; height: 1em;vertical-align: middle;fill: white;overflow: hidden;"
     viewBox="0 0 1263 1024" version="1.1" xmlns="http://www.w3.org/2000/svg" p-id="1396">
  <path
    d="M109.893436 620.981655c61.181896-26.963463 122.302071-53.935342 183.430663-80.901611 15.278641-12.927649 30.503978-25.855299 45.72651-38.780142l95.156252 216.465184 84.571178-216.465184c15.685436 13.25589 31.426981 26.441644 47.112416 39.694729l125.545205 53.870816c1.568263-5.117195 3.299244-9.648044 5.091945-13.455079 45.502071-19.099704 86.246049-39.689118 113.276844-46.649512 27.608723 71.522893 69.632 123.746893 120.6272 164.098104 55.733655-43.305381 96.253195-98.685545 124.560482-163.708142 29.000241 5.773677 66.271036 18.302948 96.777819 25.914214 26.276121 54.263584 26.966268 183.924427 25.527058 263.440132L788.387419 824.505162c0.987529 35.632395 0.642455 72.504811 0 109.708274-235.926795 0-471.797479 0-707.668164 0C75.916274 783.710685 84.714258 676.420734 109.893436 620.981655L109.893436 620.981655zM827.105841 328.751693c54.765764 7.409271 160.226542-3.355353 204.157545-22.746827 1.736592 28.882411 2.19669 84.972362-15.691047 127.918641-8.388384 20.317282-20.8896 36.406707-33.800416 48.854619l103.314586 2.429545c0 0-10.355025-83.521929-7.229721-105.171814 42.373962-296.474652-340.753534-296.474652-298.379573 0 3.069195 21.647079-7.235332 105.171814-7.235332 105.171814l104.074871-2.48846c-12.910816-12.388997-25.414838-28.478422-33.806027-48.795704-13.951649-33.514258-16.723463-74.9568-16.437304-105.286838L827.105841 328.751693 827.105841 328.751693zM297.431321 369.964186c-5.669874-57.708712-6.890258-98.517216 10.708515-156.223123 66.562805-40.634564 147.944153 25.005238 245.998466 2.373436 9.608767 47.984921 12.964121 88.905644 10.068866 156.573808 0 0 38.14891-32.821304 43.470904-60.895737 5.38091-28.071627-4.687956-152.923879-18.117786-172.893282-53.943759-80.110466-252.827003-82.655036-311.983342-13.659879-15.971595 18.695715-34.322236 189.274477-16.959123 211.965195C278.039847 359.948625 297.431321 369.964186 297.431321 369.964186z"
    p-id="1397"></path>
</svg>
