<svg class="icon" style="width: 1em; height: 1em;vertical-align: middle;fill: currentColor;overflow: hidden;"
     viewBox="0 0 1024 1024" version="1.1" xmlns="http://www.w3.org/2000/svg" p-id="1361">
  <path
    d="M728.436364 595.781818c-37.236364-23.272727-79.127273-41.890909-123.345455-51.2 88.436364-41.890909 148.945455-132.654545 148.945455-235.054545C754.036364 162.909091 637.672727 46.545455 493.381818 46.545455S230.4 162.909091 230.4 309.527273c0 104.727273 60.509091 193.163636 148.945455 235.054545C186.181818 593.454545 44.218182 768 44.218182 977.454545h46.545454c0-221.090909 179.2-402.618182 402.618182-402.618181 74.472727 0 148.945455 20.945455 211.781818 60.509091l23.272728-39.563637zM276.945455 309.527273c0-118.690909 95.418182-214.109091 214.10909-214.109091s214.109091 95.418182 214.109091 214.109091-95.418182 214.109091-214.109091 214.109091-214.109091-97.745455-214.10909-214.109091zM975.127273 768c0-13.963636-9.309091-23.272727-23.272728-23.272727h-46.545454l51.2-51.2c9.309091-9.309091 9.309091-23.272727 0-32.581818-9.309091-9.309091-23.272727-9.309091-32.581818 0l-65.163637 65.163636-65.163636-65.163636c-9.309091-9.309091-23.272727-9.309091-32.581818 0-9.309091 9.309091-9.309091 23.272727 0 32.581818l51.2 51.2h-46.545455c-13.963636 0-23.272727 9.309091-23.272727 23.272727s9.309091 23.272727 23.272727 23.272727h69.818182v37.236364h-69.818182c-13.963636 0-23.272727 9.309091-23.272727 23.272727s9.309091 23.272727 23.272727 23.272727h69.818182V977.454545h46.545455v-102.4h69.818181c13.963636 0 23.272727-9.309091 23.272728-23.272727s-9.309091-23.272727-23.272728-23.272727h-69.818181V791.272727h69.818181c13.963636 0 23.272727-9.309091 23.272728-23.272727z"
    fill="#FFF" p-id="1362"></path>
</svg>
