<?xml version="1.0" standalone="no"?><!DOCTYPE svg PUBLIC "-//W3C//DTD SVG 1.1//EN" "http://www.w3.org/Graphics/SVG/1.1/DTD/svg11.dtd"><svg t="1603285170105" class="icon" viewBox="0 0 1024 1024" version="1.1" xmlns="http://www.w3.org/2000/svg" p-id="3947" width="64" height="64" xmlns:xlink="http://www.w3.org/1999/xlink"><defs><style type="text/css"></style></defs><path d="M866.461538 39.384615H393.846154c-43.323077 0-78.769231 35.446154-78.769231 78.769231v1.969231c0 13.784615 7.876923 27.569231 19.692308 35.446154 5.907692 3.938462 80.738462 78.769231 80.738461 78.769231 5.907692 5.907692 15.753846 0 15.753846-7.876924 0-15.753846 13.784615-31.507692 29.538462-31.507692h334.769231c15.753846 0 31.507692 15.753846 31.507692 31.507692v531.692308c0 15.753846-15.753846 27.569231-31.507692 27.569231h-334.769231c-15.753846 0-27.569231-11.815385-27.569231-27.569231v-1.969231c0-7.876923-9.846154-11.815385-15.753846-5.907692 0 0-74.830769 74.830769-82.707692 78.769231-11.815385 7.876923-19.692308 19.692308-19.692308 35.446154v39.384615c0 43.323077 33.476923 78.769231 76.8 78.769231h472.615385c43.323077 0 80.738462-35.446154 80.738461-78.769231V118.153846c0-43.323077-35.446154-78.769231-78.769231-78.769231zM630.153846 945.230769c-33.476923 0-59.076923-25.6-59.076923-59.076923s25.6-59.076923 59.076923-59.076923 59.076923 25.6 59.076923 59.076923-25.6 59.076923-59.076923 59.076923z m-86.646154-474.584615L297.353846 224.492308c-11.815385-11.815385-29.538462-11.815385-41.353846 0l-41.353846 41.353846c-11.815385 11.815385-11.815385 29.538462 0 41.353846l90.584615 90.584615c11.815385 11.815385 3.938462 33.476923-13.784615 33.476923H29.538462c-15.753846 1.969231-29.538462 15.753846-29.538462 31.507693v59.076923c0 15.753846 13.784615 29.538462 29.538462 29.538461h259.938461c17.723077 0 25.6 21.661538 13.784615 33.476923l-90.584615 90.584616c-11.815385 11.815385-11.815385 29.538462 0 41.353846l41.353846 41.353846c11.815385 11.815385 29.538462 11.815385 41.353846 0L543.507692 512c9.846154-9.846154 9.846154-29.538462 0-41.353846z" p-id="3948" fill="#d4237a"></path></svg>