<svg class="icon" style="width: 1em; height: 1em;vertical-align: middle;fill: currentColor;overflow: hidden;"
     viewBox="0 0 1024 1024" version="1.1" xmlns="http://www.w3.org/2000/svg" p-id="18807">
  <path
    d="M705.767849 251.807396c165.037887 0 287.048453-57.421283 308.571774-114.823245C1014.339623 65.226868 870.805736 14.992906 705.767849 14.992906c-172.244528 0-315.759094 50.233962-315.759094 121.991245 21.523321 57.401962 143.514566 114.823245 315.759094 114.823245zM705.767849 718.268377c-21.542642 0-50.233962 0-71.776604-7.18732v157.889207h71.776604c172.225208 0 308.571774-43.065962 308.571774-100.467924V639.323774c-71.757283 50.233962-179.412528 78.944604-308.571774 78.944603zM705.767849 510.145208c-21.542642 0-50.233962 0-71.776604-7.168v157.869886c21.542642 0 50.233962 7.187321 71.776604 7.187321 165.037887 0 287.048453-57.421283 308.571774-114.823245v-121.991245c-71.757283 50.233962-179.412528 78.925283-308.571774 78.925283z"
    fill="#FFF" p-id="18808"></path>
  <path
    d="M705.767849 302.041358c-136.365887 0-244.001811-35.878642-315.759094-78.944603v78.944603c143.514566 14.355321 272.693132 64.589283 279.861132 157.869887h28.710641c165.057208 0 287.048453-57.401962 308.591095-114.823245v-121.991245c-64.589283 43.065962-172.244528 78.944604-301.403774 78.944603z"
    fill="#FFF" p-id="18809"></path>
  <path
    d="M318.232151 574.734491c165.057208 0 287.067774-57.401962 308.591094-114.823246 0-64.589283-136.346566-121.991245-308.591094-121.991245C153.213585 345.088 9.660377 395.321962 9.660377 459.911245c21.523321 64.589283 143.533887 114.823245 308.571774 114.823246z"
    fill="#FFF" p-id="18810"></path>
  <path
    d="M318.232151 804.380981c165.057208 0 287.067774-57.421283 308.591094-114.823245v-129.178566c-64.589283 50.233962-172.225208 78.944604-308.591094 78.944604-136.346566 0-236.814491-28.710642-308.571774-78.944604v129.178566c21.523321 57.401962 143.533887 114.823245 308.571774 114.823245z"
    fill="#FFF" p-id="18811"></path>
  <path
    d="M318.232151 868.970264C189.072906 868.970264 74.24966 840.259623 9.660377 790.02566v129.178566c0 57.401962 143.533887 100.467925 308.571774 100.467925 165.057208 0 308.591094-43.065962 308.591094-100.467925V790.02566c-64.589283 43.065962-172.225208 78.944604-308.591094 78.944604z"
    fill="#FFF" p-id="18812"></path>
  <path
    d="M210.924679 547.58883l32.903246-82.634868h-30.642717l32.652075-56.764377h-32.400906V383.323774h87.658265l-7.283925-16.577208h34.661434l7.283924 16.577208h86.170567v24.865811h-140.172076l-18.335396 31.898566h117.547472l-13.312-23.609962h33.424905l26.855849 48.495094h-42.447698v49.963472c0 2.183245 0.77283 4.018717 2.260528 5.525736a7.515774 7.515774 0 0 0 5.525736 2.260528h34.661434l-9.544453 24.865811h-35.414943a27.319547 27.319547 0 0 1-19.591245-8.037434 27.532075 27.532075 0 0 1-8.037434-19.591245v-55.006189h-76.857963l-32.903245 82.634868h-34.661434zM633.315019 40.18717h36.419623l-18.586567 42.215849h9.795623v136.134038h-34.661434V108.003019h-23.107622l30.140377-67.815849z m127.091924 3.284528v9.795623h56.513208v18.084226h-56.513208V81.14717h24.363472c3.670943 0 7.206642 0.753509 10.549132 2.260528 3.342491 1.507019 6.279245 3.516377 8.790944 6.028076a27.532075 27.532075 0 0 1 8.037434 19.320754v90.691623h10.549132v19.088906h-156.227623v-19.088906h7.786264V81.14717h51.992151v-9.795623h-56.513207v-18.084226h56.513207V43.471698h34.159094z m17.581887 115.538113h-69.574038v11.051472h69.574038V159.009811z m0-29.135698h-69.574038v11.051472h69.574038v-11.051472z m0 69.554717v-11.032151h-69.574038v11.051472h69.574038z m0-91.155321a7.824906 7.824906 0 0 0-2.260528-5.796226 7.515774 7.515774 0 0 0-5.525736-2.241208h-61.787774v11.302642h69.574038v-3.284528z"
    fill="#d87a80" p-id="18813"></path>
</svg>
