<svg class="icon" style="width: 1em; height: 1em;vertical-align: middle;fill: currentColor;overflow: hidden;" viewBox="0 0 1024 1024" version="1.1" xmlns="http://www.w3.org/2000/svg" p-id="640"><path d="M791.332452 984.740978a234.748766 234.748766 0 0 1-165.227016-68.016951 233.424542 233.424542 0 0 1-50.200121-74.216725 226.081119 226.081119 0 0 1-18.238173-90.047219c0-31.781371 6.139583-61.756983 18.238173-90.107411 12.158782-28.290236 28.892156-52.90876 50.139929-73.674997a239.564125 239.564125 0 0 1 74.638069-49.297241c28.531004-12.038398 58.747383-18.117789 90.649139-18.117789s62.057943 6.019199 90.588947 18.117789c28.470812 12.09859 53.149528 28.531004 74.036149 49.357433A231.257631 231.257631 0 0 1 1023.793923 752.399891c0 31.721179-6.079391 61.756983-18.238174 90.047219-12.158782 28.350428-28.651388 53.089336-49.598201 74.216725a228.127647 228.127647 0 0 1-74.036149 49.899161c-28.470812 12.038398-58.687192 18.057597-90.588947 18.057598z m115.087088-269.660121h-84.32898v-78.249589a39.124794 39.124794 0 0 0-10.232639-27.20678 33.767707 33.767707 0 0 0-26.243708-11.316095 30.396956 30.396956 0 0 0-25.039868 11.316095 42.074202 42.074202 0 0 0-9.149183 27.20678v78.249589h-74.036149a37.379227 37.379227 0 0 0-27.387356 11.316094 36.957883 36.957883 0 0 0-11.436479 27.146588c0 10.59379 3.852287 18.539133 11.436479 23.836029a46.648793 46.648793 0 0 0 27.327164 7.945342h74.096341v80.416501c0 10.59379 3.0096 19.682781 9.149183 27.20678 6.019199 7.584191 14.446078 11.316094 25.039868 11.316094a33.767707 33.767707 0 0 0 26.183516-11.316094 39.124794 39.124794 0 0 0 10.232639-27.20678v-80.416501h84.389172v2.227104c10.653982 0 19.742973-3.0096 27.327164-9.028799a30.095996 30.095996 0 0 0 11.436478-24.979676 36.957883 36.957883 0 0 0-11.436478-27.146588 37.319035 37.319035 0 0 0-27.327164-11.376286z m-281.457752-282.180056c-3.0096 12.038398-6.079391 22.993341-9.149182 32.864828-3.0096 8.306495-6.861887 16.793566-11.436479 25.461212a66.090806 66.090806 0 0 1-14.747038 19.863357 44.963417 44.963417 0 0 0-14.265502 16.974142c-2.648448 6.019199-4.935743 12.279166-6.861887 18.659517a584.945771 584.945771 0 0 1-6.259967 19.863357 69.100406 69.100406 0 0 1-11.376286 20.405085c-17.455677 22.632189-30.577532 44.542074-39.30537 65.729655a291.931158 291.931158 0 0 0-18.238174 61.215255c-3.430944 19.622589-4.394015 39.124794-2.889215 58.326039 1.564992 19.261437 4.574591 37.920955 9.149182 56.098936 3.0096 13.60339 7.584191 27.748508 13.663582 42.495546 6.079391 14.747038 15.047998 29.855228 26.785437 45.324569 11.79763 15.469342 26.785436 30.577532 45.023609 45.32457s40.990746 28.892156 68.378102 42.495546c-18.238173 3.792095-39.546138 7.223039-63.803511 10.232638a1645.528658 1645.528658 0 0 1-178.95079 9.028799c-19.742973 0-42.736314-0.782496-68.91983-2.287296a3399.824244 3399.824244 0 0 1-80.898036-5.658047c-27.748508-2.227104-55.135864-4.875551-82.101876-7.945343-26.966012-3.0096-51.644729-6.199775-74.036149-9.630718a677.340478 677.340478 0 0 1-57.001816-10.714175c-15.529534-3.792095-25.280636-7.223039-29.072732-10.232638-6.801695-6.019199-12.09859-22.872957-15.950878-50.440889-3.792095-27.567932-2.648448-63.622935 3.430944-108.2252 3.792095-24.919484 13.844158-43.940154 30.216379-57.182392 16.31203-13.242238 35.513275-23.595261 57.543544-31.179452s45.023609-14.566462 68.91983-20.946813a233.96627 233.96627 0 0 0 63.261783-26.665052c14.446078-9.028799 25.461212-17.576061 33.105595-25.461212 7.523999-7.945343 12.881086-16.071262 15.890686-24.377756a75.239989 75.239989 0 0 0 4.574591-26.063133c0-9.028799-0.361152-18.900285-1.143648-29.494075-1.5048-15.830494-7.042463-28.290236-16.492605-37.319035-9.510335-9.088991-19.562397-18.177981-30.21638-27.266972a56.460088 56.460088 0 0 1-15.950878-20.405085 248.051196 248.051196 0 0 1-11.436478-26.00294 187.919397 187.919397 0 0 1-9.088991-32.864828 52.667992 52.667992 0 0 1-14.807229-6.801695 75.841909 75.841909 0 0 1-12.519935-13.60339 91.913171 91.913171 0 0 1-12.580126-27.20678 73.012885 73.012885 0 0 1-3.972671-31.721179 85.472628 85.472628 0 0 1 6.259967-24.919485c3.0096-8.366687 7.223039-15.529534 12.519934-21.548732 0-25.70198 1.564992-51.403961 4.574591-77.045749 3.0096-21.909885 7.824959-45.324569 14.265502-70.304246 6.440543-24.919484 16.853758-47.190521 31.299836-66.81311 13.723774-18.900285 28.290236-34.369627 43.940153-46.468218 15.529534-12.09859 31.660987-21.548733 48.394361-28.290236A226.923807 226.923807 0 0 1 362.885858 3.912479C379.55904 1.324224 395.509917 0 410.678299 0c19.742973 0 38.763642 2.287296 57.001816 6.801695 18.238173 4.514399 35.152123 10.59379 50.681657 18.117789 15.649918 7.584191 29.494076 16.071262 41.592666 25.521405 12.158782 9.450143 22.090461 19.080861 29.674651 28.892156 17.455677 21.909885 30.156188 46.046873 38.161723 72.531349 7.945343 26.424284 13.844158 51.343769 17.636253 74.758453 3.852287 27.20678 5.357087 54.41356 4.574592 81.62034a49.417625 49.417625 0 0 1 11.436478 13.60339c3.0096 4.514399 5.296895 10.533598 6.801695 18.057598 1.5048 7.584191 1.5048 17.034334 0 28.41062a91.672403 91.672403 0 0 1-9.088991 33.948283 68.01695 68.01695 0 0 1-14.867422 19.261437 56.881432 56.881432 0 0 1-19.321629 11.376286z" fill=currentColor p-id="641"></path></svg>
