<svg class="icon" style="width: 1em; height: 1em;vertical-align: middle;fill: currentColor;overflow: hidden;" viewBox="0 0 1024 1024" version="1.1" xmlns="http://www.w3.org/2000/svg" p-id="7334"><path d="M512.7 63.9C265.5 63.9 65 239.2 65 455.6c0 123.6 65.6 233.7 167.9 305.5v198.1l196.1-119c27.1 4.5 55 7.1 83.7 7.1 247.2 0 447.7-175.4 447.7-391.7 0-216.4-200.5-391.7-447.7-391.7m0 718c-23.6 0-48.1-2.1-73-6.2l-23.9-4L298.3 843V727l-27.8-19.5c-89-62.5-140.1-154.3-140.1-252 0-179.9 171.5-326.3 382.3-326.3S895 275.6 895 455.5 723.5 781.9 512.7 781.9m-258-327.2c0 16.7 6.9 33.4 18.7 45.2 11.8 11.8 28.5 18.7 45.2 18.7 16.7 0 33.4-6.9 45.2-18.7 11.8-11.8 18.7-28.5 18.7-45.2 0-16.7-6.9-33.4-18.7-45.2-11.8-11.8-28.4-18.7-45.2-18.7-16.7 0-33.3 6.9-45.2 18.7-11.8 11.9-18.7 28.5-18.7 45.2m196.4 0c0 16.7 6.9 33.4 18.7 45.2 11.8 11.8 28.4 18.7 45.2 18.7 16.7 0 33.4-6.9 45.2-18.7 11.8-11.8 18.7-28.5 18.7-45.2 0-16.7-6.9-33.4-18.7-45.2-11.8-11.8-28.5-18.7-45.2-18.7-16.7 0-33.4 6.9-45.2 18.7-11.8 11.9-18.7 28.5-18.7 45.2m196.4 2.1c0 16.7 6.9 33.3 18.7 45.2 11.8 11.8 28.5 18.7 45.2 18.7 16.7 0 33.3-6.9 45.2-18.7 11.8-11.8 18.7-28.5 18.7-45.2 0-16.7-6.9-33.4-18.7-45.2-11.8-11.8-28.4-18.7-45.2-18.7-16.7 0-33.3 6.9-45.2 18.7-11.8 11.9-18.7 28.5-18.7 45.2m0 0" fill="" p-id="7335"></path></svg>
