<svg class="icon" style="width: 1em; height: 1em;vertical-align: middle;fill: currentColor;overflow: hidden;" viewBox="0 0 1024 1024" version="1.1" xmlns="http://www.w3.org/2000/svg" p-id="2422"><path d="M908.806909 126.013329L511.932353 0 115.183514 126.013329a35.577679 35.577679 0 0 0-24.857518 34.286231v501.550419c0.800012 3.428623 19.508866 85.978439 100.572945 165.922502 62.41237 61.49807 212.117484 140.573548 277.421326 174.85978 10.194439 5.360081 15.040227 7.325825 19.360292 9.668717l19.360292 9.680146c5.108648 2.754327 14.274501 2.628611 19.371721 0l19.37172-9.680146c38.20629-18.708854 214.986099-113.44171 287.090043-184.494211 81.258368-79.944063 99.967222-162.516736 100.744377-165.922501V160.29956a35.429106 35.429106 0 0 0-24.811803-34.286231zM516.903857 944.23138l-0.262861-0.137145h0.651438a0.925728 0.925728 0 0 1-0.388577 0.137145z m94.607141-291.432966h-64.126682v90.287076a37.943429 37.943429 0 1 1-75.886858 0V510.201979c0-0.788583 0.125716-1.440022 0.125716-2.102889a168.402539 168.402539 0 0 1-20.800314-7.714402c-23.417496-10.720162-43.429226-29.966166-56.789427-51.817924-13.863066-22.766058-21.20032-51.292202-18.971715-77.989748 2.617182-30.48046 13.600205-57.052289 33.143357-80.732646 33.74908-40.949189 95.784301-57.566582 145.499337-39.383451 28.137567 10.285869 51.029341 27.611845 68.309601 51.943641 15.177372 21.337465 22.857488 47.897865 23.554641 73.932543a12.091611 12.091611 0 0 1 0 2.228605 20.034588 20.034588 0 0 1-0.125716 2.742899c-1.828599 57.840872-41.612056 112.401695-98.138623 127.45335v66.606718h64.115253a37.966287 37.966287 0 0 1 37.943429 37.94343V614.866414h0.137145A37.989144 37.989144 0 0 1 611.476711 652.821272z" fill="#4EB864" p-id="2423"></path><path d="M555.635869 412.977656a8.468699 8.468699 0 0 1 0.9143-1.314306 108.573066 108.573066 0 0 0 6.148664-10.743019 112.310265 112.310265 0 0 0 4.057204-14.777366c0.137145-2.480037 0.262861-5.108648 0.400006-7.600114a73.212532 73.212532 0 0 0-0.400006-7.588686 98.390055 98.390055 0 0 0-4.057204-14.777366c-1.520023-3.085761-3.18862-6.09152-4.971503-9.028708a33.989084 33.989084 0 0 1-2.880044-4.194348c-1.428593-1.577167-2.868615-3.268621-4.434352-4.708643-1.840028-1.828599-3.794343-3.657198-5.897232-5.371509a8.5487 8.5487 0 0 1-1.302877-0.9143 108.435921 108.435921 0 0 0-10.73159-6.148664 118.036065 118.036065 0 0 0-14.65165-4.057204 100.744376 100.744376 0 0 0-15.314517 0 94.207135 94.207135 0 0 0-14.651649 4.057204q-4.571498 2.285749-9.028708 4.971503a33.394789 33.394789 0 0 1-4.18292 2.880044c-1.577167 1.428593-3.280049 2.880043-4.708642 4.445781a76.24115 76.24115 0 0 0-5.37151 5.885803 10.194439 10.194439 0 0 1-0.914299 1.314306 104.790151 104.790151 0 0 0-6.148664 10.720161 114.710301 114.710301 0 0 0-4.057204 14.65165 100.744376 100.744376 0 0 0 0 15.314517 92.961402 92.961402 0 0 0 4.057204 14.651649c1.565738 3.142905 3.131476 6.022948 4.971503 9.028708a36.103402 36.103402 0 0 1 2.868615 4.194349c1.440022 1.577167 2.880043 3.268621 4.445781 4.708642a78.298323 78.298323 0 0 0 5.885803 5.360081 10.194439 10.194439 0 0 1 1.314306 0.914299 105.658736 105.658736 0 0 0 10.73159 6.160093 118.036065 118.036065 0 0 0 14.65165 4.057204 100.744376 100.744376 0 0 0 15.314516 0 94.207135 94.207135 0 0 0 14.65165-4.057204c3.131476-1.565738 6.011519-3.142905 9.028707-4.971503a32.423346 32.423346 0 0 1 4.18292-2.880044 35.977685 35.977685 0 0 0 4.708643-4.320065 71.703938 71.703938 0 0 0 5.371509-5.862945z" fill="#4EB864" p-id="2424"></path></svg>
