<svg class="icon" style="width: 1em; height: 1em;vertical-align: middle;fill: currentColor;overflow: hidden;"
     viewBox="0 0 1024 1024" version="1.1" xmlns="http://www.w3.org/2000/svg" p-id="8421">
  <path
    d="M884.449421 463.666409L541.864093 806.251737 403.584556 671.135135l-97.457915 97.457915L530.892664 993.359073 978.744402 545.408494z"
    p-id="8422"></path>
  <path
    d="M130.583784 251.156757h92.318147v-94.789189h-92.318147v94.789189z m0 190.072587h92.318147v-94.78919h-92.318147v94.78919z m0 190.171428h92.318147v-94.789189h-92.318147v94.789189z m0 190.072587h92.318147v-95.283398h-92.318147v95.283398z m190.072587-591.864093H705.941313c10.47722 0 20.163707-5.633977 25.402316-14.628571 5.23861-9.093436 5.23861-20.262548 0-29.355985S716.418533 170.996139 705.941313 170.996139H320.656371c-10.47722 0-20.163707 5.633977-25.402317 14.628571-5.23861 9.093436-5.23861 20.262548 0 29.355985 5.23861 8.994595 14.925097 14.628571 25.402317 14.628571z m0 190.072587H705.941313c10.47722 0 20.163707-5.633977 25.402316-14.628571 5.23861-9.093436 5.23861-20.262548 0-29.355985s-14.925097-14.628571-25.402316-14.628571H320.656371c-10.47722 0-20.163707 5.633977-25.402317 14.628571-5.23861 9.093436-5.23861 20.262548 0 29.355985 5.23861 8.994595 14.925097 14.628571 25.402317 14.628571z m681.216988 105.85946L906.589961 429.170656c-11.564479-10.872587-29.553668-10.872587-41.118146 0l-8.994595 7.017761V29.454826c0-16.111197-13.047104-29.059459-29.059459-29.059459h-794.687259C16.619305 0.296525 3.671042 13.343629 3.671042 29.454826v896.889576c1.087259 15.320463 13.738996 27.082625 29.05946 27.082625h417.902703l60.688803 60.688803c11.366795 11.366795 29.751351 11.366795 41.118146 0l61.183012-60.688803h213.695753c16.111197 0 29.059459-13.047104 29.059459-29.059459V712.648649l145.494981-145.494981c5.633977-5.436293 8.796911-12.948263 8.796911-20.855599s-3.162934-15.320463-8.796911-20.756756zM62.28417 896.691892V59.008494h735.876448v435.891892l-68.694981 68.694981c-5.535135-7.413127-14.332046-11.66332-23.623166-11.564479H320.656371c-16.210039 0-29.355985 13.145946-29.355985 29.355985s13.145946 29.355985 29.355985 29.355984h363.144401L536.328958 758.313514 420.980695 641.877992c-11.366795-11.366795-29.751351-11.366795-41.118147 0L279.538224 742.202317c-11.366795 11.366795-11.366795 29.751351 0 41.118146l112.87722 112.87722-330.131274 0.494209z m735.975289 0H672.335135l125.924324-125.924324v125.924324z m58.118919-266.872587L589.011583 897.284942l-56.636293 56.142085-57.229344-56.636293L341.215444 763.255598l59.206178-60.688803L515.275676 817.420849c11.366795 11.366795 29.751351 11.366795 41.118146 0l241.272587-241.272586 58.711969-57.229344 28.071043-28.071043 55.647876 55.153668-83.718919 83.817761z m0 0"
    p-id="8423"></path>
</svg>
