<svg class="icon" style="width: 1em; height: 1em;vertical-align: middle;fill: currentColor;overflow: hidden;" viewBox="0 0 1024 1024" version="1.1" xmlns="http://www.w3.org/2000/svg" p-id="2508"><path d="M447.808 140.288c-64.128 100.608-31.616 174.336-31.616 174.336s-24.896-41.28-37.312 0c-12.48 41.408 8.192 57.984 51.84 109.696 43.52 51.712 109.824 130.368 161.6 148.992 51.904 18.624 140.928-76.48 192.704-138.624 51.776-62.08 49.728-97.28 35.2-120.128s-22.72 0-22.72 0 18.688-106.496-31.232-170.624C682.88 36.224 512 39.68 447.808 140.288z m34.176 449.984s29.504 86.4 56.896 145.216c27.328 58.88 25.216 37.888 25.216 37.888s20.992-77.824 20.992-94.72c0-16.768-29.504-31.616-19.008-58.88a46.4 46.4 0 0 1 69.504-20.992c25.216 16.704 23.232 29.376 10.496 56.768-12.608 27.328-14.72 42.112-14.72 42.112l27.328 79.872 77.888-180.928c23.808-55.232 229.888 161.088 217.472 277.568-12.992 120.768-697.216 96.32-697.216 33.728 0-159.104 75.84-264.32 225.152-317.632zM69.376 447.424c0-1.984 165.376-152 172.928-159.296a25089.28 25089.28 0 0 0 168.896 159.296v125.504c0 32.384-82.304 24.192-145.92 132.032-68.672 116.288-35.008 227.776-64.32 230.08-28.224 2.304-60.8-0.704-97.408-0.704-18.816 0-34.112-11.712-34.112-25.92l-0.064-460.992z m168.832-58.752a92.608 92.608 0 1 0 0 185.216c51.2 0 92.8-41.472 92.8-92.608a92.864 92.864 0 0 0-92.8-92.608z" fill="" p-id="2509"></path></svg>
