<svg class="icon" style="width: 1em; height: 1em;vertical-align: middle;fill: currentColor;overflow: hidden;"
     viewBox="0 0 1024 1024" version="1.1" xmlns="http://www.w3.org/2000/svg" p-id="3818">
  <path
    d="M708.608 787.456c-12.288 0-23.552-8.192-27.136-20.48-24.064-81.92-125.44-131.072-156.16-143.872-7.68-3.072-13.824-10.24-15.872-17.92-2.56-8.192-1.024-16.896 4.096-24.064 41.984-59.904 67.072-137.728 67.072-207.872 0-69.632-20.992-126.976-60.416-166.912-7.168-7.168-9.728-17.92-7.168-27.648 19.456-66.048 72.192-107.52 137.216-107.52 89.6 0 152.064 78.336 152.064 189.952 0 72.704-23.04 146.944-60.928 195.584-2.56 10.752-2.56 16.896-2.048 19.968 45.056 17.92 174.08 76.8 169.984 171.008v19.968c0 40.96-25.6 111.616-199.168 119.296-0.512 0.512-1.024 0.512-1.536 0.512z m-131.072-202.24c48.64 25.088 119.808 71.68 150.528 144.384 63.488-5.632 124.928-24.064 124.928-61.952v-20.992-1.536c2.048-36.864-53.248-84.992-134.656-116.736-8.704-2.048-17.408-8.192-23.552-15.872-13.312-17.408-15.36-43.008-6.144-76.8 1.024-3.584 3.072-7.168 5.632-10.24 31.744-37.888 52.224-102.912 52.224-164.864 0-81.408-37.376-133.632-95.744-133.632-34.816 0-62.976 19.456-77.824 52.736 42.496 49.664 64.512 115.712 64.512 193.536-0.512 70.144-22.528 147.456-59.904 211.968z m148.48-111.616z m-0.512 0z"
    p-id="3819"></path>
  <path
    d="M391.168 953.344c-228.352 0-275.968-69.632-275.968-128v-20.992c0-88.576 117.76-152.064 173.568-177.152 3.584-5.12 13.312-22.016 7.68-46.592-41.984-53.248-67.584-132.608-67.584-207.872 0-137.216 81.408-198.144 162.304-198.144 80.896 0 162.304 68.096 162.304 198.144 0 73.216-27.136 152.576-71.68 208.384-6.656 25.088-1.536 39.936 1.024 46.08 67.584 27.136 175.616 92.672 180.224 176.128V825.856c0.512 127.488-204.8 127.488-271.872 127.488z m0-722.432c-64.512 0-105.984 55.808-105.984 141.824 0 64.512 23.04 134.144 58.88 177.152 2.56 3.072 4.096 6.144 5.12 9.728 16.896 57.856-11.264 104.448-29.696 115.2l-3.072 1.536c-86.528 37.888-144.896 89.6-144.896 128v20.992c0 44.544 81.92 71.68 219.648 71.68 80.896 0 216.064-9.216 216.064-71.68v-19.968c-3.072-45.056-77.824-99.84-148.992-127.488-7.168-2.048-13.312-7.168-18.944-14.848-7.168-9.728-28.16-45.056-9.216-103.424 1.024-3.584 3.072-6.656 5.12-9.216 37.888-45.568 62.464-115.2 62.464-177.152-0.512-98.304-55.296-142.336-106.496-142.336z m-86.016 420.352z m162.816-28.16z m0 0z m0 0z m-0.512 0c0.512 0 0.512 0 0 0 0.512 0 0.512 0 0 0z m0 0z m0 0z m0 0z m0 0z m0 0z m-0.512 0s0.512 0 0 0c0.512 0 0.512 0 0 0z m0 0z m0 0z m0 0z m0 0z m0 0z"
    p-id="3820"></path>
</svg>
