<svg class="icon" style="width: 1em; height: 1em;vertical-align: middle;fill: currentColor;overflow: hidden;" viewBox="0 0 1024 1024" version="1.1" xmlns="http://www.w3.org/2000/svg" p-id="6356"><path d="M768 199.111111m-199.111111 0a199.111111 199.111111 0 1 0 398.222222 0 199.111111 199.111111 0 1 0-398.222222 0Z" fill=currentColor p-id="6357"></path><path d="M768 824.888889m-199.111111 0a199.111111 199.111111 0 1 0 398.222222 0 199.111111 199.111111 0 1 0-398.222222 0Z" fill=currentColor p-id="6358"></path><path d="M256 540.444444m-199.111111 0a199.111111 199.111111 0 1 0 398.222222 0 199.111111 199.111111 0 1 0-398.222222 0Z" fill=currentColor p-id="6359"></path><path d="M803.157333 812.544L249.173333 509.724444l-30.663111 57.457778 553.016889 305.891556z" fill=currentColor p-id="6360"></path><path d="M731.761778 176.924444l-552.391111 358.968889 48.184889 42.268445C579.072 356.124444 762.311111 239.274667 777.329778 227.555556c14.961778-11.719111-0.227556-28.558222-45.511111-50.631112z" fill=currentColor p-id="6361"></path></svg>
