<svg class="icon" style="width: 1em; height: 1em;vertical-align: middle;fill: currentColor;overflow: hidden;" viewBox="0 0 1024 1024" version="1.1" xmlns="http://www.w3.org/2000/svg" p-id="2605"><path d="M704.5 857.1c-3.3 0-6.4-1.2-8.9-3.4L610.1 777c-5.5-4.9-5.9-13.3-1-18.8s13.3-5.9 18.8-1l74.8 67.1 102.1-133.5c4.5-5.8 12.8-6.9 18.7-2.5 5.8 4.5 7 12.8 2.5 18.7L715.1 852c-2.3 3-5.6 4.8-9.3 5.2-0.4-0.1-0.9-0.1-1.3-0.1z" fill="currentColor" p-id="2606"></path><path d="M718.3 959.1c-109 0-197.6-88.7-197.6-197.6s88.7-197.6 197.6-197.6 197.6 88.7 197.6 197.6-88.6 197.6-197.6 197.6z m0-368.6c-94.3 0-171 76.7-171 171s76.7 171 171 171 171-76.7 171-171-76.7-171-171-171zM558.4 487.7H216.7c-7.3 0-13.3-6-13.3-13.3s6-13.3 13.3-13.3h341.7c7.3 0 13.3 6 13.3 13.3s-5.9 13.3-13.3 13.3zM501.2 614.9H216.7c-7.3 0-13.3-6-13.3-13.3 0-7.4 6-13.3 13.3-13.3h284.5c7.3 0 13.3 6 13.3 13.3 0 7.4-6 13.3-13.3 13.3zM417.2 742.1H216.7c-7.3 0-13.3-6-13.3-13.3 0-7.4 6-13.3 13.3-13.3h200.5c7.3 0 13.3 6 13.3 13.3 0 7.4-6 13.3-13.3 13.3zM879.5 351.9H122.8c-7.3 0-13.3-6-13.3-13.3 0-7.4 6-13.3 13.3-13.3h756.7c7.3 0 13.3 6 13.3 13.3 0 7.3-6 13.3-13.3 13.3zM331.9 254.7h-17.3c-21 0-38.1-17.1-38.1-38.1V102.2c0-21 17.1-38.1 38.1-38.1h17.3c21 0 38.1 17.1 38.1 38.1v114.4c-0.1 21-17.1 38.1-38.1 38.1z m-17.3-164c-6.3 0-11.5 5.1-11.5 11.5v114.4c0 6.3 5.1 11.5 11.5 11.5h17.3c6.3 0 11.5-5.1 11.5-11.5V102.2c0-6.3-5.1-11.5-11.5-11.5h-17.3z" fill="currentColor" p-id="2607"></path><path d="M356.6 152.2h284.7v26.6H356.6zM830.7 152.2H708.2v26.6h122.5c19.6 0 35.5 15.9 35.5 35.5v329.5c0 7.4 6 13.3 13.3 13.3 7.3 0 13.3-6 13.3-13.3V214.3c0-34.2-27.9-62.1-62.1-62.1zM484.9 908.9H171.6c-19.6 0-35.5-15.9-35.5-35.5v-659c0-19.6 15.9-35.5 35.5-35.5h118.2v-26.6H171.6c-34.3 0-62.1 27.9-62.1 62.1v659c0 34.3 27.9 62.1 62.1 62.1h313.2c7.3 0 13.3-6 13.3-13.3 0.1-7.4-5.9-13.3-13.2-13.3z" fill="currentColor" p-id="2608"></path><path d="M683.4 254.7h-17.3c-21 0-38.1-17.1-38.1-38.1V102.2c0-21 17.1-38.1 38.1-38.1h17.3c21 0 38.1 17.1 38.1 38.1v114.4c0 21-17.1 38.1-38.1 38.1z m-17.3-164c-6.3 0-11.5 5.1-11.5 11.5v114.4c0 6.3 5.1 11.5 11.5 11.5h17.3c6.3 0 11.5-5.1 11.5-11.5V102.2c0-6.3-5.1-11.5-11.5-11.5h-17.3z" fill="currentColor" p-id="2609"></path></svg>
