<svg class="icon" style="width: 1em; height: 1em;vertical-align: middle;fill: currentColor;overflow: hidden;" viewBox="0 0 1024 1024" version="1.1" xmlns="http://www.w3.org/2000/svg" p-id="2037"><path d="M986.786909 292.584727c-21.876364 0-36.491636 14.615273-36.491636 36.538182V409.6c0 14.615273 14.592 29.277091 36.491636 29.277091 21.969455 0 36.538182-14.661818 36.538182-29.277091v-80.477091c0-21.922909-14.568727-36.538182-36.538182-36.538182m-949.899636 0c-21.946182 0-36.538182 14.615273-36.538182 36.468364v73.169454c0 21.922909 14.592 36.584727 36.538182 36.584728 21.899636 0 36.491636-14.661818 36.491636-36.584728V329.076364c0-21.922909-14.592-36.538182-36.491636-36.538182" fill="#666666" p-id="2038"></path><path d="M694.551273 804.538182h-0.069818c21.876364 0 36.491636 14.592 36.491636 36.514909 0 21.969455-14.592 36.584727-36.491636 36.584727H329.076364c-21.899636 0-36.491636-14.615273-36.491637-36.584727 0-21.922909 14.592-36.538182 36.491637-36.538182h365.474909zM621.381818 950.784h0.046546c21.969455 0 36.561455 14.615273 36.561454 36.538182 0 21.969455-14.592 36.584727-36.538182 36.584727h-219.229091c-21.946182 0-36.538182-14.615273-36.538181-36.584727 0-21.922909 14.592-36.538182 36.538181-36.538182H621.381818z" fill="#117BFD" p-id="2039"></path><path d="M511.837091 0c204.613818 0 365.358545 160.907636 365.358545 365.707636 0 197.492364-160.744727 365.707636-365.358545 365.707637-204.590545 0-365.335273-160.907636-365.335273-365.707637S307.246545 0 511.837091 0z m0 658.292364c161.256727-0.465455 291.84-131.188364 292.305454-292.584728-0.465455-161.419636-131.048727-292.142545-292.305454-292.584727-161.233455 0.442182-291.84 131.165091-292.305455 292.584727 0.465455 161.396364 131.072 292.142545 292.305455 292.584728z" fill="#666666" p-id="2040"></path></svg>
