<svg class="icon" style="width: 1em; height: 1em;vertical-align: middle;fill: currentColor;overflow: hidden;" viewBox="0 0 1024 1024" version="1.1" xmlns="http://www.w3.org/2000/svg" p-id="2365"><path d="M837.818 64.001H634.181v81.453h203.637c22.476 0 40.73 18.254 40.73 40.728v203.64H960V186.184c0.001-67.452-54.729-122.181-122.179-122.181zM145.452 186.182c0-22.473 18.221-40.728 40.732-40.728h203.637V64H186.184c-67.499 0-122.179 54.73-122.179 122.179v203.64h81.452V186.181zM145.452 837.819V634.181H64v203.64C64 905.32 118.684 960 186.179 960h203.637v-81.453H186.179c-22.512 0-40.732-18.217-40.732-40.729zM878.548 837.819c0 22.512-18.254 40.728-40.73 40.728H634.181V960h203.637c67.452 0 122.179-54.684 122.179-122.179V634.183h-81.452v203.638zM511.998 349.09c-89.964 0-162.908 72.944-162.908 162.911S422.03 674.91 511.998 674.91s162.911-72.94 162.911-162.909c-0.001-89.964-72.943-162.911-162.911-162.911z" p-id="2366"></path></svg>
