<svg class="icon" style="width: 1em; height: 1em;vertical-align: middle;fill: currentColor;overflow: hidden;" viewBox="0 0 1024 1024" version="1.1" xmlns="http://www.w3.org/2000/svg" p-id="1567"><path d="M785.066667 915.187071a118.328889 118.328889 0 0 1-120.397576-115.01899A116.260202 116.260202 0 0 1 753.208889 688.872727V137.360808a30.202828 30.202828 0 0 1 59.991919 0v551.511919a116.260202 116.260202 0 0 1 90.194748 111.295354 117.915152 117.915152 0 0 1-119.983839 115.01899zM574.888081 594.126869v292.512323a30.202828 30.202828 0 0 1-59.991919 0v-292.512323a113.36404 113.36404 0 0 1 0-222.17697V137.360808a30.202828 30.202828 0 0 1 59.991919 0v234.589091a113.36404 113.36404 0 0 1 0 222.17697zM310.509899 335.127273v551.511919a27.720404 27.720404 0 0 1-30.202828 28.547879 27.720404 27.720404 0 0 1-29.789091-28.547879V335.127273a116.260202 116.260202 0 0 1-90.194748-111.295354 117.915152 117.915152 0 0 1 119.983839-115.01899 118.328889 118.328889 0 0 1 120.397575 115.01899A116.260202 116.260202 0 0 1 310.509899 335.127273z" p-id="1568"></path></svg>
