<svg class="icon" style="width: 1em; height: 1em;vertical-align: middle;fill: currentColor;overflow: hidden;" viewBox="0 0 1024 1024" version="1.1" xmlns="http://www.w3.org/2000/svg" p-id="1731"><path d="M97.610378 874.19871V61.715269h736.178924V143.139785H895.119195V46.300215A46.190108 46.190108 0 0 0 849.094249 0H82.305431A46.190108 46.190108 0 0 0 36.280485 46.300215v843.313548A46.190108 46.190108 0 0 0 82.305431 935.913978H179.42027v-61.715268z" fill="#8BAEF7" p-id="1732"></path><path d="M723.186292 422.042151l-69.753119-40.189248a99.867527 99.867527 0 0 1-139.451182 0.275269l-69.587957 40.189247a99.977634 99.977634 0 0 1-70.468818 120.182366v81.259355a99.372043 99.372043 0 0 1 69.808172 121.118279l70.028387 40.299355a99.867527 99.867527 0 0 1 140.442151-0.825806l69.367742-40.024086a99.977634 99.977634 0 0 1 69.698064-121.55871V543.766022a99.372043 99.372043 0 0 1-70.028387-121.778925z m-138.625377 264.258064A103.005591 103.005591 0 1 1 687.676614 583.569892a103.060645 103.060645 0 0 1-103.115699 102.840431z" fill="#467CFD" p-id="1733"></path><path d="M513.926937 583.404731a70.633978 70.578925 0 1 0 141.267957 0 70.633978 70.578925 0 1 0-141.267957 0Z" fill="#467CFD" p-id="1734"></path><path d="M968.230593 143.139785H198.909302A19.544086 19.544086 0 0 0 179.42027 162.628817v841.882151a19.544086 19.544086 0 0 0 19.489032 19.489032h769.321291a19.544086 19.544086 0 0 0 19.489032-19.489032V162.628817a19.544086 19.544086 0 0 0-19.489032-19.489032z m-142.644301 504.953118l-3.468387 3.468387a67.44086 67.44086 0 0 0-59.733334 102.179785l-1.76172 6.606452-112.419785 64.908387-4.459355-1.211183a67.165591 67.165591 0 0 0-107.024516-15.910537 67.550968 67.550968 0 0 0-11.616344 15.470107l-6.661506 1.761721-112.309677-64.688173-1.596559-6.00086a66.945376 66.945376 0 0 0-59.072688-102.069677l-4.018925-4.018925V519.046882l3.138064-5.505377a67.385806 67.385806 0 0 0 50.374194-19.709247q22.737204-22.737204 9.414194-83.571613l2.092043-3.633548 112.474838-64.79828 5.835699 1.541506a95.51828 95.51828 0 0 0 11.286022 14.974623 67.330753 67.330753 0 0 0 95.132903 0 96.509247 96.509247 0 0 0 11.010753-14.809462l6.221075-1.651613 112.309677 64.688172 1.541506 5.835699a66.945376 66.945376 0 0 0 59.458064 102.565161h0.550538a3.468387 3.468387 0 0 1 3.193118 3.193119v0.550537z" fill="#467CFD" p-id="1735"></path></svg>
