<svg class="icon" style="width: 1em; height: 1em;vertical-align: middle;fill: currentColor;overflow: hidden;" viewBox="0 0 1024 1024" version="1.1" xmlns="http://www.w3.org/2000/svg" p-id="1548"><path d="M508.416 319.488c-102.912 0-186.368 83.456-186.368 186.368 0 102.912 83.456 186.368 186.368 186.368s186.368-83.456 186.368-186.368-83.456-186.368-186.368-186.368z m0 315.392c-71.168 0-129.024-57.856-129.024-129.024 0-71.168 57.856-129.024 129.024-129.024s129.024 57.856 129.024 129.024c0 70.656-57.856 129.024-129.024 129.024z" fill="#1afa29" p-id="1549"></path><path d="M963.584 630.272l0.512-0.512c0.512-0.512 0.512-1.024 1.024-1.536 0-0.512 0.512-0.512 0.512-1.024s0.512-0.512 0.512-1.024 0.512-1.024 0.512-1.536c0-0.512 0-0.512 0.512-1.024 0-0.512 0.512-1.024 0.512-1.536v-1.024c0-0.512 0.512-1.536 0.512-2.048 8.192-34.816 12.288-70.656 12.288-107.52s-4.096-72.704-12.288-107.52c0-0.512-0.512-1.536-0.512-2.048v-1.024c0-0.512-0.512-1.024-0.512-1.536 0-0.512 0-0.512-0.512-1.024 0-0.512-0.512-1.024-0.512-1.536 0-0.512-0.512-1.024-0.512-1.024 0-0.512-0.512-0.512-0.512-1.024-0.512-0.512-0.512-1.024-1.024-1.536l-0.512-0.512-1.536-1.536-0.512-0.512-1.536-1.536-0.512-0.512c-0.512-0.512-1.024-1.024-1.536-1.024-0.512-0.512-1.024-0.512-1.536-1.024-0.512 0-0.512-0.512-1.024-0.512-0.512-0.512-1.024-0.512-1.536-1.024 0 0-0.512 0-0.512-0.512-0.512-0.512-1.024-0.512-2.048-1.024 0 0-0.512 0-0.512-0.512-0.512 0-1.024-0.512-1.536-0.512-0.512 0-0.512 0-1.024-0.512-0.512 0-1.024 0-1.024-0.512-0.512 0-1.024 0-1.536-0.512h-10.752c-61.44 0-111.616-50.176-111.616-111.616 0-22.016 6.144-43.008 17.92-60.928 0.512-1.024 1.024-2.048 1.536-3.584 0.512-0.512 0.512-1.024 1.024-1.536 0.512-1.024 0.512-2.048 1.024-3.072 0-1.024 0.512-1.536 0.512-2.56v-2.048c0-1.024 0.512-2.048 0-3.072 0-1.024 0-2.048-0.512-2.56 0-1.024 0-2.048-0.512-2.56 0-1.024-0.512-2.048-1.024-3.072 0-0.512-0.512-1.536-0.512-2.048-0.512-0.512-0.512-1.536-1.024-2.048l-1.536-3.072c-0.512-0.512-1.024-1.024-1.024-1.536-1.024-1.024-1.536-2.048-2.56-3.072A469.5296 469.5296 0 0 0 646.656 61.44h-0.512c-0.512 0-1.024-0.512-1.536-0.512h-11.264c-0.512 0-1.024 0-1.536 0.512-0.512 0-1.024 0-1.024 0.512-0.512 0-1.024 0.512-1.536 0.512-0.512 0-1.024 0.512-1.024 0.512-0.512 0-1.024 0.512-1.536 0.512-0.512 0-1.024 0.512-1.024 0.512-0.512 0-1.024 0.512-1.024 0.512-0.512 0-1.024 0.512-1.024 0.512-0.512 0-0.512 0.512-1.024 0.512-0.512 0.512-1.024 0.512-1.024 1.024l-1.024 1.024-1.024 1.024-1.024 1.024-1.024 1.024-1.024 1.024-1.024 1.024c-0.512 0.512-0.512 1.024-1.024 1.536 0 0.512-0.512 0.512-0.512 1.024-0.512 0.512-0.512 1.024-1.024 1.536 0 0 0 0.512-0.512 0.512-18.432 38.912-57.344 64-100.864 64s-82.944-25.088-100.864-64c0 0 0-0.512-0.512-0.512 0-0.512-0.512-1.024-1.024-1.536 0-0.512-0.512-0.512-0.512-1.024-0.512-0.512-0.512-1.024-1.024-1.536 0-0.512-0.512-0.512-1.024-1.024l-1.024-1.024-1.024-1.024-1.024-1.024-1.024-1.024-1.024-1.024c-0.512-0.512-1.024-0.512-1.024-1.024-0.512 0-0.512-0.512-1.024-0.512-0.512-0.512-1.024-0.512-1.024-0.512-0.512 0-0.512-0.512-1.024-0.512s-1.024-0.512-1.024-0.512c-0.512 0-1.024-0.512-1.536-0.512-0.512 0-1.024-0.512-1.024-0.512-0.512 0-1.024-0.512-1.536-0.512-0.512 0-1.024 0-1.024-0.512-0.512 0-1.024 0-1.536-0.512h-11.264c-0.512 0-1.024 0-1.536 0.512h-0.512c-70.656 21.504-135.168 58.88-188.416 110.08v0.512c-1.024 1.024-1.536 1.536-2.048 2.56-0.512 0.512-1.024 1.024-1.536 2.048-0.512 1.024-1.024 1.536-1.536 2.56-0.512 1.024-1.024 1.536-1.024 2.56-0.512 1.024-0.512 1.536-1.024 2.56s-0.512 2.048-1.024 2.56c0 1.024 0 2.048-0.512 2.56 0 1.024-0.512 2.048-0.512 2.56v5.632c0 1.024 0.512 1.536 0.512 2.56 0.512 1.024 0.512 2.048 1.024 3.072 0.512 0.512 0.512 1.536 1.024 2.048l1.536 3.072v0.512c12.288 17.92 18.432 39.424 18.432 61.952 0 61.44-50.176 111.616-111.616 111.616h-6.144-6.144c-0.512 0-1.024 0-1.536 0.512-0.512 0-1.024 0-1.536 0.512-0.512 0-1.024 0-1.024 0.512-0.512 0-1.024 0.512-1.536 0.512-0.512 0-0.512 0.512-1.024 0.512s-1.024 0.512-1.536 0.512c-0.512 0-0.512 0.512-1.024 0.512s-1.024 0.512-1.536 1.024c-0.512 0-0.512 0.512-1.024 0.512-0.512 0.512-1.024 0.512-1.024 1.024l-1.024 1.024-1.024 1.024-1.024 1.024-1.024 1.024c-0.512 0.512-0.512 1.024-1.024 1.024 0 0.512-0.512 0.512-0.512 1.024-0.512 0.512-0.512 1.024-1.024 1.024 0 0.512-0.512 0.512-0.512 1.024s-0.512 1.024-0.512 1.024c0 0.512-0.512 1.024-0.512 1.536 0 0.512-0.512 0.512-0.512 1.024s-0.512 1.024-0.512 1.536c0 0.512 0 0.512-0.512 1.024 0 0.512-0.512 1.024-0.512 1.536v0.512C46.08 439.808 41.984 476.16 41.984 512.512s4.096 72.704 12.288 107.52v0.512c0 0.512 0.512 1.024 0.512 1.536 0 0.512 0 0.512 0.512 1.024 0 0.512 0.512 1.024 0.512 1.536 0 0.512 0.512 0.512 0.512 1.024s0.512 1.024 0.512 1.536c0 0.512 0.512 1.024 0.512 1.024 0 0.512 0.512 0.512 0.512 1.024 0.512 0.512 0.512 1.024 1.024 1.024 0 0.512 0.512 0.512 0.512 1.024 0.512 0.512 0.512 1.024 1.024 1.024l1.024 1.024 1.024 1.024 1.024 1.024 1.024 1.024c0.512 0.512 1.024 0.512 1.024 1.024 0.512 0 0.512 0.512 1.024 0.512 0.512 0.512 1.024 0.512 1.536 1.024 0.512 0 0.512 0.512 1.024 0.512s1.024 0.512 1.536 0.512c0.512 0 0.512 0.512 1.024 0.512s1.024 0.512 1.536 0.512c0.512 0 1.024 0 1.024 0.512 0.512 0 1.024 0 1.536 0.512 0.512 0 1.024 0 1.536 0.512h11.776c61.44 0 111.616 50.176 111.616 111.616 0 22.528-6.656 43.52-18.432 61.952v0.512l-1.536 3.072c-0.512 0.512-1.024 1.536-1.024 2.048-0.512 1.024-0.512 2.048-1.024 3.072 0 1.024-0.512 1.536-0.512 2.56v5.632c0 1.024 0 2.048 0.512 2.56 0 1.024 0 2.048 0.512 2.56 0 1.024 0.512 2.048 1.024 2.56 0.512 1.024 0.512 1.536 1.024 2.56s1.024 1.536 1.024 2.56c0.512 1.024 1.024 1.536 1.536 2.56 0.512 0.512 1.024 1.024 1.536 2.048 0.512 1.024 1.536 1.536 2.048 2.56v0.512c53.248 50.688 117.76 88.576 188.416 110.08h0.512c0.512 0 1.024 0.512 1.536 0.512H389.12c0.512 0 1.024 0 1.536-0.512 0.512 0 1.024 0 1.024-0.512 0.512 0 1.024-0.512 1.536-0.512 0.512 0 1.024-0.512 1.024-0.512 0.512 0 1.024-0.512 1.536-0.512 0.512 0 1.024-0.512 1.024-0.512 0.512 0 1.024-0.512 1.024-0.512 0.512 0 1.024-0.512 1.024-0.512 0.512 0 0.512-0.512 1.024-0.512 0.512-0.512 1.024-0.512 1.024-1.024l1.024-1.024 1.024-1.024 1.024-1.024 1.024-1.024 1.024-1.024 1.024-1.024c0.512-0.512 0.512-1.024 1.024-1.536 0-0.512 0.512-0.512 0.512-1.024 0.512-0.512 0.512-1.024 1.024-1.536 0 0 0-0.512 0.512-0.512 18.432-38.912 57.344-64 100.864-64s82.944 25.088 100.864 64c0 0 0 0.512 0.512 0.512 0 0.512 0.512 1.024 1.024 1.536 0 0.512 0.512 0.512 0.512 1.024 0.512 0.512 0.512 1.024 1.024 1.536 0 0.512 0.512 0.512 1.024 1.024l1.024 1.024 1.024 1.024 1.024 1.024 1.024 1.024 1.024 1.024c0.512 0.512 1.024 0.512 1.024 1.024 0.512 0 0.512 0.512 1.024 0.512 0.512 0.512 1.024 0.512 1.024 0.512 0.512 0 1.024 0.512 1.024 0.512 0.512 0 1.024 0.512 1.024 0.512 0.512 0 1.024 0.512 1.536 0.512 0.512 0 1.024 0.512 1.024 0.512 0.512 0 1.024 0.512 1.536 0.512 0.512 0 1.024 0 1.024 0.512 0.512 0 1.024 0 1.536 0.512h11.264c0.512 0 1.024 0 1.536-0.512h0.512c71.168-21.504 136.192-59.392 189.952-111.104 1.024-1.024 1.536-2.048 2.56-3.072 0.512-0.512 1.024-1.024 1.024-1.536l1.536-3.072c0.512-0.512 1.024-1.536 1.024-2.048 0.512-0.512 0.512-1.536 0.512-2.048 0.512-1.024 0.512-2.048 1.024-3.072 0-1.024 0-2.048 0.512-2.56 0-1.024 0.512-1.536 0.512-2.56v-3.072-2.048c0-1.024-0.512-1.536-0.512-2.56-0.512-1.024-0.512-2.048-1.024-3.072 0-0.512-0.512-1.024-1.024-1.536-0.512-1.024-1.024-2.56-2.048-3.584-11.776-17.92-17.92-38.912-17.92-60.928 0-61.44 50.176-111.616 111.616-111.616h10.752c0.512 0 1.024 0 1.536-0.512 0.512 0 1.024 0 1.536-0.512 0.512 0 0.512 0 1.024-0.512 0.512 0 1.024-0.512 1.536-0.512 0 0 0.512 0 0.512-0.512 0.512-0.512 1.024-0.512 2.048-1.024 0 0 0.512 0 0.512-0.512 0.512-0.512 1.024-0.512 2.048-1.024 0.512 0 0.512-0.512 1.024-0.512 0.512-0.512 1.024-0.512 1.536-1.024 0.512-0.512 1.024-0.512 1.536-1.024 0.512 0 0.512-0.512 1.024-0.512l1.536-1.536 0.512-0.512c0-2.56 0.512-3.072 1.024-3.584z m-197.632 122.88c0 24.576 5.12 48.64 15.36 70.656-37.888 32.768-81.92 58.88-129.024 75.776-30.72-46.08-82.944-74.752-140.288-74.752s-109.056 28.672-140.288 74.752c-46.592-16.896-90.112-42.496-127.488-74.752 10.24-22.016 15.872-46.592 15.872-71.68 0-88.064-67.584-160.256-153.6-168.448-4.096-24.064-6.656-48.128-6.656-72.704s2.048-49.152 6.656-72.704c86.016-7.68 153.6-80.384 153.6-168.448 0-25.088-5.632-49.664-15.872-71.68 37.888-32.256 80.896-57.856 127.488-74.752 30.72 46.08 82.944 74.752 140.288 74.752s109.056-28.672 140.288-74.752c47.104 16.896 91.136 43.008 129.024 75.776-10.24 22.016-15.36 45.568-15.36 70.656 0 87.552 66.56 159.232 151.552 167.936 4.096 24.064 6.656 48.128 6.656 73.216 0 24.576-2.048 49.152-6.656 73.216-84.992 8.704-151.552 80.384-151.552 167.936z" fill="#1afa29" p-id="1550"></path></svg>
