<svg class="icon"
     style="color: white; width: 1.927734375em; height: 1em;vertical-align: middle;fill: currentColor;overflow: hidden;"
     viewBox="0 0 1974 1024" version="1.1" xmlns="http://www.w3.org/2000/svg" p-id="2701">
  <path
    d="M924.590368 0.030719H99.378913A97.007616 97.007616 0 0 0 0 94.128107v458.522665A97.007616 97.007616 0 0 0 99.378913 646.74816h825.211455A97.007616 97.007616 0 0 0 1023.969281 552.650772V94.128107A97.007616 97.007616 0 0 0 924.590368 0.030719z m-19.347631 51.30625l-393.419776 241.441178-393.419776-241.441178H905.404417z m-851.026258 42.791138a40.635413 40.635413 0 0 1 4.419236-18.48534l246.022093 150.900736-250.441329 317.268797V94.02032z m870.373889 501.206016H99.378913a47.048694 47.048694 0 0 1-16.167936-2.802442l266.770945-337.963756 147.074324 90.270976a28.401674 28.401674 0 0 0 29.479537 0l147.020431-90.270976 266.770945 337.963756a47.048694 47.048694 0 0 1-15.736791 2.910228z m45.162434-51.521823l-250.441329-317.268797 246.022093-150.900736a40.635413 40.635413 0 0 1 4.419236 18.48534v449.79198zM997.022721 107.816959a458.09152 458.09152 0 1 1-458.091521 458.091521A458.09152 458.09152 0 0 1 997.022721 107.816959z m87.953572 330.472612h-30.39572a195.093095 195.093095 0 0 0-23.281828-56.102738l21.557248-21.557248a46.779228 46.779228 0 1 0-66.180751-66.180751l-21.557248 21.557248a195.093095 195.093095 0 0 0-56.102738-23.281828v-30.39572a46.779228 46.779228 0 1 0-93.558457 0v30.39572a195.093095 195.093095 0 0 0-56.102738 23.281828l-21.557248-21.557248a46.779228 46.779228 0 1 0-66.180751 66.180751l21.557248 21.557248a195.093095 195.093095 0 0 0-23.281828 56.102738h-30.39572a46.779228 46.779228 0 1 0 0 93.558457h30.39572a195.093095 195.093095 0 0 0 23.281828 56.102738l-21.557248 21.557248a46.779228 46.779228 0 0 0 66.180751 66.180751l21.557248-21.557248a195.093095 195.093095 0 0 0 56.102738 23.281828v30.39572a46.779228 46.779228 0 1 0 93.558457 0v-30.39572a195.093095 195.093095 0 0 0 56.102738-23.281828l21.557248 21.557248a46.779228 46.779228 0 1 0 66.180751-66.180751l-21.557248-21.557248a195.093095 195.093095 0 0 0 23.281828-56.102738h30.39572a46.779228 46.779228 0 1 0 0-93.558457zM862.289921 575.07031A90.00151 90.00151 0 1 1 952.291431 485.0688 90.00151 90.00151 0 0 1 862.289921 575.07031z"
    p-id="2702"></path>
</svg>
