<svg class="icon" style="width: 1em; height: 1em;vertical-align: middle;fill: currentColor;overflow: hidden;"
     viewBox="0 0 1024 1024" version="1.1" xmlns="http://www.w3.org/2000/svg" p-id="8490">
  <path
    d="M864 220.8c0-60.8-48-112-108.8-112h-163.2V54.4c0-32-25.6-54.4-54.4-54.4h-214.4c-28.8 0-54.4 25.6-54.4 54.4v54.4h-160C48 112 0 160 0 220.8v137.6h864V220.8zM540.8 112h-214.4v-28.8c0-16 12.8-28.8 25.6-28.8h160c16 0 25.6 12.8 25.6 28.8l3.2 28.8zM377.6 444.8c0 32 25.6 54.4 54.4 54.4 28.8 0 54.4-25.6 54.4-54.4 0-9.6-3.2-19.2-6.4-28.8h-96c-3.2 9.6-6.4 19.2-6.4 28.8zM1017.6 518.4c-9.6-25.6-108.8 150.4-185.6 80s89.6-185.6 64-192c-54.4-12.8-115.2 6.4-156.8 51.2-44.8 51.2-54.4 124.8-25.6 182.4L512 860.8c-22.4 25.6-22.4 64 3.2 86.4 25.6 22.4 64 22.4 86.4-3.2l201.6-220.8c60.8 22.4 131.2 6.4 179.2-44.8 38.4-44.8 51.2-108.8 35.2-160z m-448 396.8c-6.4 9.6-19.2 9.6-28.8 0-9.6-6.4-9.6-19.2 0-28.8 6.4-9.6 19.2-9.6 28.8 0 9.6 6.4 9.6 19.2 0 28.8zM662.4 550.4c0-54.4 22.4-99.2 57.6-134.4h-182.4c3.2 9.6 3.2 19.2 3.2 28.8 0 60.8-48 112-108.8 112s-108.8-51.2-108.8-112c0-9.6 0-19.2 3.2-28.8H0v304c0 64 48 112 108.8 112h377.6l198.4-198.4c-12.8-22.4-22.4-51.2-22.4-83.2z"
    p-id="8491"></path>
</svg>
