<svg class="icon" style="width: 1.1396484375em; height: 1em;vertical-align: middle;fill: currentColor;overflow: hidden;" viewBox="0 0 1167 1024" version="1.1" xmlns="http://www.w3.org/2000/svg" p-id="8718"><path d="M1145.66647 18.904083A64.593389 64.593389 0 0 0 1098.964409 0.011155H65.01848A62.845499 62.845499 0 0 0 18.905595 18.904083 62.845499 62.845499 0 0 0 0.012667 65.095525v707.01186a64.593389 64.593389 0 0 0 18.892928 46.702062 61.981373 61.981373 0 0 0 46.112885 19.34463h204.954883l-16.025602 137.474528a46.918093 46.918093 0 0 0 72.940056 38.964209l260.769542-176.399459h511.30705a66.32164 66.32164 0 0 0 66.125248-66.125248v-707.011861a62.040291 62.040291 0 0 0-19.423187-46.191441zM243.931759 419.151353a67.657107 67.657107 0 1 1 67.657107 67.755303 67.932056 67.932056 0 0 1-67.657107-67.755303z m338.423011 67.755303a67.83386 67.83386 0 1 1 67.912417-67.755303 67.971335 67.971335 0 0 1-67.990974 67.755303z m271.158688 0a67.83386 67.83386 0 1 1 68.010613-67.755303 67.873139 67.873139 0 0 1-68.010613 67.755303z" p-id="8719"></path></svg>
