<svg class="icon" style="width: 1em; height: 1em;vertical-align: middle;fill: currentColor;overflow: hidden;" viewBox="0 0 1024 1024" version="1.1" xmlns="http://www.w3.org/2000/svg" p-id="3303"><path d="M0 512c0 138.071 111.93 250 250 250h181.582v-80.418H250c-93.658 0-169.582-75.924-169.582-169.582 0-93.657 75.924-169.582 169.582-169.582h181.582V262H250C111.93 262 0 373.929 0 512zM774 262H592.418v80.418H774c93.657 0 169.582 75.925 169.582 169.582 0 93.658-75.925 169.582-169.582 169.582H592.418V762H774c138.071 0 250-111.929 250-250S912.071 262 774 262zM471.791 9.064h80.418v160h-80.418zM307.5 0l78.306 138.565-70.012 39.566-78.307-138.565zM716.501 0.002l70.012 39.566-78.307 138.564-70.012-39.565zM471.791 854.935h80.418v160h-80.418zM307.511 1024L237.5 984.432l78.308-138.565 70.012 39.566zM716.5 1023.995l-78.308-138.566 70.012-39.565 78.307 138.565z" p-id="3304"></path></svg>
