<svg class="icon" style="width: 1em; height: 1em;vertical-align: middle;fill: currentColor;overflow: hidden;" viewBox="0 0 1024 1024" version="1.1" xmlns="http://www.w3.org/2000/svg" p-id="4109"><path d="M1006.545455 912.290909c-61.672727-189.090909-239.709091-324.072727-450.327273-327.563636-26.181818-0.581818-51.2 0-74.472727 1.745454v188.509091c0 4.654545-3.490909 8.145455-8.145455 8.145455-2.909091 0-5.818182-1.745455-6.981818-4.072728v0.581819L8.145455 459.054545h2.327272c-4.654545 0-8.145455-3.490909-8.145454-8.145454 0-3.490909 1.745455-6.4 4.654545-7.563636l459.636364-321.163637v0.581818c1.745455-2.327273 4.072727-4.072727 6.981818-4.072727 4.654545 0 8.145455 3.490909 8.145455 8.145455V309.527273c20.945455-1.163636 43.054545-1.163636 66.327272-1.163637 261.236364 4.654545 473.6 224 473.6 485.236364 0 41.309091-5.236364 80.872727-15.127272 118.690909zM481.745455 111.709091z m0 678.4z" p-id="4110"></path></svg>
