<svg class="icon" style="width: 1em; height: 1em;vertical-align: middle;fill: currentColor;overflow: hidden;" viewBox="0 0 1024 1024" version="1.1" xmlns="http://www.w3.org/2000/svg" p-id="2773"><path d="M960 512c0-35.2-28.8-64-64-64h-64v-96-32c0-176-144-320-320-320S192 144 192 320v128H128c-35.2 0-64 28.8-64 64v320c0 105.6 86.4 192 192 192h512c105.6 0 192-86.4 192-192v-160-19.2V512z m-416 249.6V832c0 19.2-12.8 32-32 32s-32-12.8-32-32v-64-6.4c-19.2-9.6-32-32-32-57.6 0-35.2 28.8-64 64-64s64 28.8 64 64c0 25.6-12.8 44.8-32 57.6zM704 320a32 32 0 0 0 32 32h64l1.568-0.032A32 32 0 0 0 832 320V448H320v-96-32c0-105.6 86.4-192 192-192s192 86.4 192 192z m128 0z" p-id="2774"></path></svg>
