<?xml version="1.0" standalone="no"?><!DOCTYPE svg PUBLIC "-//W3C//DTD SVG 1.1//EN" "http://www.w3.org/Graphics/SVG/1.1/DTD/svg11.dtd"><svg t="1594869870225" class="icon" viewBox="0 0 1024 1024" version="1.1" xmlns="http://www.w3.org/2000/svg" p-id="2937" width="40" height="40" xmlns:xlink="http://www.w3.org/1999/xlink"><defs><style type="text/css"></style></defs><path d="M976.02688227 608.99858546h-89.47840341c-22.05756985-0.10944398-39.84217657 17.74734905-39.84217657 39.78046919v67.80737877c0 33.34191787-27.12574635 60.57361408-60.32445554 60.57361522H231.74544839c-33.19870919 0-60.32445554-27.23169735-60.32445554-60.57361522v-67.80737877c0-22.03311901-17.78344277-39.78046919-39.61630264-39.78046919h-89.5878474c-21.94812587 0-39.61630379 17.85795698-39.61630379 39.78046919V886.10430066c0 33.34191787 27.12574635 60.57361408 60.32445554 60.57361408h892.39024299c33.20453006 0 60.32445554-27.23169735 60.32445554-60.57361408V648.78021859c-0.00116395-22.03428409-17.77994979-39.78163314-39.61281082-39.78163313z" fill="#ffffff" p-id="2938"></path><path d="M333.35347769 271.01886691h92.42872718v381.41723762c0 22.18797056 17.10233031 40.35213767 37.98629035 40.35213881h118.84308935c20.88396003 0 37.98629035-18.16416711 37.98629034-40.35213881V271.01886691h92.42872719c15.80181277 0 25.43518947-18.51229184 16.99055729-32.76326229L540.18001579 28.57537991c-7.90090638-13.21824142-26.0813733-13.21824142-33.98227968 0L316.36175645 238.25560462c-8.44463218 14.25213554 1.18990962 32.76326229 16.99172124 32.76326229z" fill="#ffffff" p-id="2939"></path></svg>