<svg class="icon" style="width: 1em; height: 1em;vertical-align: middle;fill: currentColor;overflow: hidden;" viewBox="0 0 1024 1024" version="1.1" xmlns="http://www.w3.org/2000/svg" p-id="1845"><path d="M913.97 95.17c-5.044 0-11.184 1.414-18.284 4.43L105.32 435.445c-28.454 12.118-30.242 35.421-4.003 51.785L324.68 626.564c26.238 16.363 60.965 51.464 77.142 77.969l133.862 219.52c7.689 12.599 16.977 18.817 25.892 18.817 9.876 0 19.299-7.581 25.706-22.582l337.98-790.738c9.128-21.435 3.95-34.38-11.292-34.38zM352.28 579.292L171.25 466.355l607.32-258.024-390.828 398.02c-11.96-10.618-24.124-19.991-35.464-27.06z m204.625 274.72L448.906 676.958c-6.384-10.47-14.682-21.645-24.088-32.725L817.49 244.36l-260.585 609.65z" p-id="1846"></path></svg>
