<svg class="icon" style="width: 1em; height: 1em;vertical-align: middle;fill: currentColor;overflow: hidden;" viewBox="0 0 1024 1024" version="1.1" xmlns="http://www.w3.org/2000/svg" p-id="1369"><path d="M120.49559 257.195393A121.717547 121.717547 0 0 0 95.631421 276.268548a120.12369 120.12369 0 0 0-35.436755 85.005707v481.929232A120.920618 120.920618 0 0 0 180.637128 963.805334h294.332261l37.189997 30.123897v-30.123897h331.309743a120.920618 120.920618 0 0 0 120.49559-120.49559V361.274255a120.920618 120.920618 0 0 0-120.49559-120.495589H512.053129v-30.017641L475.394417 180.637128h367.968455a181.168413 181.168413 0 0 1 180.637128 180.637127v481.929232a181.168413 181.168413 0 0 1-180.637128 180.637127H180.637128a181.168413 181.168413 0 0 1-180.637128-180.637127V361.274255a181.487185 181.487185 0 0 1 120.49559-170.011414zM541.911383 210.761025v783.115078a30.123897 30.123897 0 0 1-50.897167 21.782712l-299.113832-243.169451A29.964512 29.964512 0 0 1 180.637128 749.112794V90.318564a89.946664 89.946664 0 0 1 13.813427-47.81571q0.637543-1.009443 1.328214-1.965757A92.018678 92.018678 0 0 1 281.209505 0.531286a87.50275 87.50275 0 0 1 46.221853 19.657569L531.28567 187.59697a29.964512 29.964512 0 0 1 10.625713 23.164055zM481.929231 930.759365V224.840095L289.391304 66.570094a27.786241 27.786241 0 0 0-14.663484-6.26917 31.13334 31.13334 0 0 0-16.841756 3.134585 30.548926 30.548926 0 0 0-11.953927 9.828785l-0.690672 1.168828a30.123897 30.123897 0 0 0-4.303414 15.93857v644.608904z" p-id="1370"></path></svg>
