<svg class="icon" style="width: 1em; height: 1em;vertical-align: middle;fill: currentColor;overflow: hidden;" viewBox="0 0 1024 1024" version="1.1" xmlns="http://www.w3.org/2000/svg" p-id="3215"><path d="M500.667733 716.9024c109.294933 0 197.768533-87.552 197.768534-195.754667V196.642133c0-108.202667-88.4736-195.754667-197.768534-195.754666-109.294933 0-197.768533 87.552-197.768533 195.754666v324.5056c2.594133 108.202667 88.4736 195.754667 197.768533 195.754667z" fill="currentColor" p-id="3216"></path><path d="M807.765333 379.4944c-20.821333 0-39.048533 18.0224-39.048533 38.638933v105.608534c0 146.807467-119.7056 265.284267-268.049067 265.284266s-268.049067-118.442667-268.049066-265.284266v-115.9168c0-20.5824-18.193067-38.638933-39.0144-38.638934s-39.048533 18.056533-39.048534 38.638934v115.9168c0 175.138133 135.338667 321.9456 307.0976 339.968v82.432H331.502933c-20.821333 0-39.0144 18.0224-39.0144 38.638933 0 20.616533 18.2272 38.638933 39.0144 38.638933h338.3296c20.821333 0 39.0144-18.0224 39.0144-38.638933 0-20.616533-18.193067-38.638933-39.0144-38.638933h-130.116266v-82.397867c171.758933-18.056533 307.063467-164.864 307.063466-340.002133V418.133333c0-23.176533-18.193067-38.638933-39.0144-38.638933z" fill="currentColor" p-id="3217"></path></svg>
