<svg class="icon" style="width: 1em; height: 1em;vertical-align: middle;fill: currentColor;overflow: hidden;" viewBox="0 0 1024 1024" version="1.1" xmlns="http://www.w3.org/2000/svg" p-id="2705"><path d="M832.192 64H191.808A128.064 128.064 0 0 0 64 192.384v639.168C64 902.464 121.28 960 191.808 960h640.384A128.128 128.128 0 0 0 960 831.552V192.384A128 128 0 0 0 832.192 64zM896 831.552c0 35.52-28.608 64.448-63.808 64.448H191.808c-35.2 0-63.808-28.928-63.808-64.448V192.384c0-35.52 28.608-64.384 63.808-64.384h640.384c35.2 0 63.808 28.864 63.808 64.384v639.168z" p-id="2706"></path><path d="M256.768 276.032h64v96h-64z m127.936 0h384v96h-384zM256.064 464h64v96h-64zM384 464h384v96H384zM256.064 656h64v96h-64zM384 656h384v96H384z" p-id="2707"></path></svg>
