<svg class="icon" style="width: 1em; height: 1em;vertical-align: middle;fill: currentColor;overflow: hidden;" viewBox="0 0 1024 1024" version="1.1" xmlns="http://www.w3.org/2000/svg" p-id="15761"><path d="M898.8 136.3h-26.2c-4.3-29.8-29.9-52.8-60.9-52.8H569.2c-31 0-56.6 23-60.9 52.8H125.2c-33.4 0-60.6 27.2-60.6 60.6v581.2c0 33.4 27.2 60.6 60.6 60.6h382.4V898c0 23.7 19.3 42.9 42.9 42.9 16.5 0 25.4 0 139.9-103.8 114.6 103.7 123.5 103.7 140 103.7 23.7 0 42.9-19.2 42.9-42.9v-59.3h25.5c33.4 0 60.6-27.2 60.6-60.6V196.9c0-33.4-27.2-60.6-60.6-60.6zM125.2 796.4c-10.1 0-18.3-8.2-18.3-18.3V196.9c0-10.1 8.2-18.3 18.3-18.3h382.4v91.1H255.1c-11.7 0-21.1 9.5-21.1 21.1 0 11.7 9.5 21.1 21.1 21.1h252.5v85.9H255.1c-11.7 0-21.1 9.5-21.1 21.1 0 11.7 9.5 21.1 21.1 21.1h252.5v85.5H255.1c-11.7 0-21.1 9.5-21.1 21.1 0 11.7 9.5 21.1 21.1 21.1h252.5v85.9H255.1c-11.7 0-21.1 9.5-21.1 21.1 0 11.7 9.5 21.1 21.1 21.1h252.5v100.3H125.2z m705.9 101.5c0 0.4-0.2 0.6-0.6 0.6-10.3 0-139.9-118.7-139.9-118.7S560.8 898.5 550.5 898.5c-0.4 0-0.6-0.2-0.6-0.6V145.1c0-10.6 8.7-19.3 19.3-19.3h242.5c10.6 0 19.3 8.7 19.3 19.3v752.8z m86-119.8c0 10.1-8.2 18.3-18.3 18.3h-25.5V178.6h25.5c10.1 0 18.3 8.2 18.3 18.3v581.2z" p-id="15762"></path></svg>
